<?xml version="1.0" encoding="utf-8"?>
<!-- Generator: Adobe Illustrator 18.0.0, SVG Export Plug-In . SVG Version: 6.00 Build 0)  -->
<!DOCTYPE svg PUBLIC "-//W3C//DTD SVG 1.1//EN" "http://www.w3.org/Graphics/SVG/1.1/DTD/svg11.dtd">
<svg version="1.1" id="Layer_1" xmlns="http://www.w3.org/2000/svg" xmlns:xlink="http://www.w3.org/1999/xlink" x="0px" y="0px"
	 viewBox="0 0 1080 660" enable-background="new 0 0 1080 660" xml:space="preserve">
<g id="Background">
	<rect fill="none" width="1080" height="660"/>
</g>
<g>
	<path fill="#8FC7ED" d="M40.5,30.5h100c5.5,0,10,4.5,10,10v40c0,5.5-4.5,10-10,10h-100c-5.5,0-10-4.5-10-10v-40
		C30.5,35,35,30.5,40.5,30.5z"/>
	<path fill-opacity="0" stroke="#294270" stroke-width="2" d="M40.5,30.5h100c5.5,0,10,4.5,10,10v40c0,5.5-4.5,10-10,10h-100
		c-5.5,0-10-4.5-10-10v-40C30.5,35,35,30.5,40.5,30.5z"/>
</g>
<g>
	<path fill="#8FC7ED" d="M190.5,30.5h100c5.5,0,10,4.5,10,10v40c0,5.5-4.5,10-10,10h-100c-5.5,0-10-4.5-10-10v-40
		C180.5,35,185,30.5,190.5,30.5z"/>
	<path fill-opacity="0" stroke="#294270" stroke-width="2" d="M190.5,30.5h100c5.5,0,10,4.5,10,10v40c0,5.5-4.5,10-10,10h-100
		c-5.5,0-10-4.5-10-10v-40C180.5,35,185,30.5,190.5,30.5z"/>
</g>
<g>
	<path fill="#8FC7ED" d="M940.5,30.5h100c5.5,0,10,4.5,10,10v40c0,5.5-4.5,10-10,10h-100c-5.5,0-10-4.5-10-10v-40
		C930.5,35,935,30.5,940.5,30.5z"/>
	<path fill-opacity="0" stroke="#294270" stroke-width="2" d="M940.5,30.5h100c5.5,0,10,4.5,10,10v40c0,5.5-4.5,10-10,10h-100
		c-5.5,0-10-4.5-10-10v-40C930.5,35,935,30.5,940.5,30.5z"/>
</g>
<path fill="#294270" d="M1020,48c-3.3,0-6-2.7-6-6s2.7-6,6-6s6,2.7,6,6S1023.3,48,1020,48z"/>
<path fill="#294270" d="M1002,48c-3.3,0-6-2.7-6-6s2.7-6,6-6s6,2.7,6,6S1005.3,48,1002,48z"/>
<path fill="#294270" d="M1038,84c-3.3,0-6-2.7-6-6s2.7-6,6-6s6,2.7,6,6S1041.3,84,1038,84z"/>
<path fill="#294270" d="M1020,84c-3.3,0-6-2.7-6-6s2.7-6,6-6s6,2.7,6,6S1023.3,84,1020,84z"/>
<path fill="#294270" d="M1002,84c-3.3,0-6-2.7-6-6s2.7-6,6-6s6,2.7,6,6S1005.3,84,1002,84z"/>
<path fill="#294270" d="M1038,48c-3.3,0-6-2.7-6-6s2.7-6,6-6s6,2.7,6,6S1041.3,48,1038,48z"/>
<path fill="#294270" d="M270,66c-3.3,0-6-2.7-6-6s2.7-6,6-6s6,2.7,6,6S273.3,66,270,66z"/>
<path fill-opacity="0" stroke="#65A1CF" stroke-width="2" d="M90.5,36.5v48"/>
<path fill-opacity="0" stroke="#65A1CF" stroke-width="2" d="M240.5,36.5v48"/>
<path fill-opacity="0" stroke="#65A1CF" stroke-width="2" d="M990.5,36.5v48"/>
<g>
	<path fill="#8FC7ED" d="M340.5,30.5h100c5.5,0,10,4.5,10,10v40c0,5.5-4.5,10-10,10h-100c-5.5,0-10-4.5-10-10v-40
		C330.5,35,335,30.5,340.5,30.5z"/>
	<path fill-opacity="0" stroke="#294270" stroke-width="2" d="M340.5,30.5h100c5.5,0,10,4.5,10,10v40c0,5.5-4.5,10-10,10h-100
		c-5.5,0-10-4.5-10-10v-40C330.5,35,335,30.5,340.5,30.5z"/>
</g>
<path fill="#294270" d="M402,84c-3.3,0-6-2.7-6-6s2.7-6,6-6s6,2.7,6,6S405.3,84,402,84z"/>
<path fill="#294270" d="M438,48c-3.3,0-6-2.7-6-6s2.7-6,6-6s6,2.7,6,6S441.3,48,438,48z"/>
<path fill-opacity="0" stroke="#65A1CF" stroke-width="2" d="M390.5,36.5v48"/>
<g>
	<path fill="#8FC7ED" d="M490.5,30.5h100c5.5,0,10,4.5,10,10v40c0,5.5-4.5,10-10,10h-100c-5.5,0-10-4.5-10-10v-40
		C480.5,35,485,30.5,490.5,30.5z"/>
	<path fill-opacity="0" stroke="#294270" stroke-width="2" d="M490.5,30.5h100c5.5,0,10,4.5,10,10v40c0,5.5-4.5,10-10,10h-100
		c-5.5,0-10-4.5-10-10v-40C480.5,35,485,30.5,490.5,30.5z"/>
</g>
<path fill="#294270" d="M570,66c-3.3,0-6-2.7-6-6s2.7-6,6-6s6,2.7,6,6S573.3,66,570,66z"/>
<path fill="#294270" d="M552,84c-3.3,0-6-2.7-6-6s2.7-6,6-6s6,2.7,6,6S555.3,84,552,84z"/>
<path fill="#294270" d="M588,48c-3.3,0-6-2.7-6-6s2.7-6,6-6s6,2.7,6,6S591.3,48,588,48z"/>
<path fill-opacity="0" stroke="#65A1CF" stroke-width="2" d="M540.5,36.5v48"/>
<g>
	<path fill="#8FC7ED" d="M640.5,30.5h100c5.5,0,10,4.5,10,10v40c0,5.5-4.5,10-10,10h-100c-5.5,0-10-4.5-10-10v-40
		C630.5,35,635,30.5,640.5,30.5z"/>
	<path fill-opacity="0" stroke="#294270" stroke-width="2" d="M640.5,30.5h100c5.5,0,10,4.5,10,10v40c0,5.5-4.5,10-10,10h-100
		c-5.5,0-10-4.5-10-10v-40C630.5,35,635,30.5,640.5,30.5z"/>
</g>
<path fill="#294270" d="M702,48c-3.3,0-6-2.7-6-6s2.7-6,6-6s6,2.7,6,6S705.3,48,702,48z"/>
<path fill="#294270" d="M738,84c-3.3,0-6-2.7-6-6s2.7-6,6-6s6,2.7,6,6S741.3,84,738,84z"/>
<path fill="#294270" d="M702,84c-3.3,0-6-2.7-6-6s2.7-6,6-6s6,2.7,6,6S705.3,84,702,84z"/>
<path fill="#294270" d="M738,48c-3.3,0-6-2.7-6-6s2.7-6,6-6s6,2.7,6,6S741.3,48,738,48z"/>
<path fill-opacity="0" stroke="#65A1CF" stroke-width="2" d="M690.5,36.5v48"/>
<g>
	<path fill="#8FC7ED" d="M790.5,30.5h100c5.5,0,10,4.5,10,10v40c0,5.5-4.5,10-10,10h-100c-5.5,0-10-4.5-10-10v-40
		C780.5,35,785,30.5,790.5,30.5z"/>
	<path fill-opacity="0" stroke="#294270" stroke-width="2" d="M790.5,30.5h100c5.5,0,10,4.5,10,10v40c0,5.5-4.5,10-10,10h-100
		c-5.5,0-10-4.5-10-10v-40C780.5,35,785,30.5,790.5,30.5z"/>
</g>
<path fill="#294270" d="M852,48c-3.3,0-6-2.7-6-6s2.7-6,6-6s6,2.7,6,6S855.3,48,852,48z"/>
<path fill="#294270" d="M888,84c-3.3,0-6-2.7-6-6s2.7-6,6-6s6,2.7,6,6S891.3,84,888,84z"/>
<path fill="#294270" d="M870,66c-3.3,0-6-2.7-6-6s2.7-6,6-6s6,2.7,6,6S873.3,66,870,66z"/>
<path fill="#294270" d="M852,84c-3.3,0-6-2.7-6-6s2.7-6,6-6s6,2.7,6,6S855.3,84,852,84z"/>
<path fill="#294270" d="M888,48c-3.3,0-6-2.7-6-6s2.7-6,6-6s6,2.7,6,6S891.3,48,888,48z"/>
<path fill-opacity="0" stroke="#65A1CF" stroke-width="2" d="M840.5,36.5v48"/>
<g>
	<path fill="#8FC7ED" d="M40.5,120.5h100c5.5,0,10,4.5,10,10v40c0,5.5-4.5,10-10,10h-100c-5.5,0-10-4.5-10-10v-40
		C30.5,125,35,120.5,40.5,120.5z"/>
	<path fill-opacity="0" stroke="#294270" stroke-width="2" d="M40.5,120.5h100c5.5,0,10,4.5,10,10v40c0,5.5-4.5,10-10,10h-100
		c-5.5,0-10-4.5-10-10v-40C30.5,125,35,120.5,40.5,120.5z"/>
</g>
<path fill="#294270" d="M60,156c-3.3,0-6-2.7-6-6s2.7-6,6-6s6,2.7,6,6S63.3,156,60,156z"/>
<path fill="#294270" d="M120,156c-3.3,0-6-2.7-6-6s2.7-6,6-6s6,2.7,6,6S123.3,156,120,156z"/>
<path fill-opacity="0" stroke="#65A1CF" stroke-width="2" d="M90.5,126.5v48"/>
<g>
	<path fill="#8FC7ED" d="M190.5,120.5h100c5.5,0,10,4.5,10,10v40c0,5.5-4.5,10-10,10h-100c-5.5,0-10-4.5-10-10v-40
		C180.5,125,185,120.5,190.5,120.5z"/>
	<path fill-opacity="0" stroke="#294270" stroke-width="2" d="M190.5,120.5h100c5.5,0,10,4.5,10,10v40c0,5.5-4.5,10-10,10h-100
		c-5.5,0-10-4.5-10-10v-40C180.5,125,185,120.5,190.5,120.5z"/>
</g>
<path fill="#294270" d="M210,156c-3.3,0-6-2.7-6-6s2.7-6,6-6s6,2.7,6,6S213.3,156,210,156z"/>
<path fill="#294270" d="M252,174c-3.3,0-6-2.7-6-6s2.7-6,6-6s6,2.7,6,6S255.3,174,252,174z"/>
<path fill="#294270" d="M288,138c-3.3,0-6-2.7-6-6s2.7-6,6-6s6,2.7,6,6S291.3,138,288,138z"/>
<path fill-opacity="0" stroke="#65A1CF" stroke-width="2" d="M240.5,126.5v48"/>
<g>
	<path fill="#8FC7ED" d="M340.5,120.5h100c5.5,0,10,4.5,10,10v40c0,5.5-4.5,10-10,10h-100c-5.5,0-10-4.5-10-10v-40
		C330.5,125,335,120.5,340.5,120.5z"/>
	<path fill-opacity="0" stroke="#294270" stroke-width="2" d="M340.5,120.5h100c5.5,0,10,4.5,10,10v40c0,5.5-4.5,10-10,10h-100
		c-5.5,0-10-4.5-10-10v-40C330.5,125,335,120.5,340.5,120.5z"/>
</g>
<path fill="#294270" d="M360,156c-3.3,0-6-2.7-6-6s2.7-6,6-6s6,2.7,6,6S363.3,156,360,156z"/>
<path fill="#294270" d="M402,174c-3.3,0-6-2.7-6-6s2.7-6,6-6s6,2.7,6,6S405.3,174,402,174z"/>
<path fill="#294270" d="M438,138c-3.3,0-6-2.7-6-6s2.7-6,6-6s6,2.7,6,6S441.3,138,438,138z"/>
<path fill-opacity="0" stroke="#65A1CF" stroke-width="2" d="M390.5,126.5v48"/>
<path fill="#294270" d="M420,156c-3.3,0-6-2.7-6-6s2.7-6,6-6s6,2.7,6,6S423.3,156,420,156z"/>
<g>
	<path fill="#8FC7ED" d="M490.5,120.5h100c5.5,0,10,4.5,10,10v40c0,5.5-4.5,10-10,10h-100c-5.5,0-10-4.5-10-10v-40
		C480.5,125,485,120.5,490.5,120.5z"/>
	<path fill-opacity="0" stroke="#294270" stroke-width="2" d="M490.5,120.5h100c5.5,0,10,4.5,10,10v40c0,5.5-4.5,10-10,10h-100
		c-5.5,0-10-4.5-10-10v-40C480.5,125,485,120.5,490.5,120.5z"/>
</g>
<path fill="#294270" d="M510,156c-3.3,0-6-2.7-6-6s2.7-6,6-6c3.3,0,6,2.7,6,6S513.3,156,510,156z"/>
<path fill="#294270" d="M588,174c-3.3,0-6-2.7-6-6s2.7-6,6-6s6,2.7,6,6S591.3,174,588,174z"/>
<path fill="#294270" d="M552,174c-3.3,0-6-2.7-6-6s2.7-6,6-6s6,2.7,6,6S555.3,174,552,174z"/>
<path fill="#294270" d="M588,138c-3.3,0-6-2.7-6-6s2.7-6,6-6s6,2.7,6,6S591.3,138,588,138z"/>
<path fill-opacity="0" stroke="#65A1CF" stroke-width="2" d="M540.5,126.5v48"/>
<path fill="#294270" d="M552,138c-3.3,0-6-2.7-6-6s2.7-6,6-6s6,2.7,6,6S555.3,138,552,138z"/>
<g>
	<path fill="#8FC7ED" d="M640.5,120.5h100c5.5,0,10,4.5,10,10v40c0,5.5-4.5,10-10,10h-100c-5.5,0-10-4.5-10-10v-40
		C630.5,125,635,120.5,640.5,120.5z"/>
	<path fill-opacity="0" stroke="#294270" stroke-width="2" d="M640.5,120.5h100c5.5,0,10,4.5,10,10v40c0,5.5-4.5,10-10,10h-100
		c-5.5,0-10-4.5-10-10v-40C630.5,125,635,120.5,640.5,120.5z"/>
</g>
<path fill="#294270" d="M660,156c-3.3,0-6-2.7-6-6s2.7-6,6-6s6,2.7,6,6S663.3,156,660,156z"/>
<path fill="#294270" d="M738,174c-3.3,0-6-2.7-6-6s2.7-6,6-6s6,2.7,6,6S741.3,174,738,174z"/>
<path fill="#294270" d="M720,156c-3.3,0-6-2.7-6-6s2.7-6,6-6s6,2.7,6,6S723.3,156,720,156z"/>
<path fill="#294270" d="M702,174c-3.3,0-6-2.7-6-6s2.7-6,6-6s6,2.7,6,6S705.3,174,702,174z"/>
<path fill="#294270" d="M738,138c-3.3,0-6-2.7-6-6s2.7-6,6-6s6,2.7,6,6S741.3,138,738,138z"/>
<path fill-opacity="0" stroke="#65A1CF" stroke-width="2" d="M690.5,126.5v48"/>
<path fill="#294270" d="M702,138c-3.3,0-6-2.7-6-6s2.7-6,6-6s6,2.7,6,6S705.3,138,702,138z"/>
<g>
	<path fill="#8FC7ED" d="M790.5,120.5h100c5.5,0,10,4.5,10,10v40c0,5.5-4.5,10-10,10h-100c-5.5,0-10-4.5-10-10v-40
		C780.5,125,785,120.5,790.5,120.5z"/>
	<path fill-opacity="0" stroke="#294270" stroke-width="2" d="M790.5,120.5h100c5.5,0,10,4.5,10,10v40c0,5.5-4.5,10-10,10h-100
		c-5.5,0-10-4.5-10-10v-40C780.5,125,785,120.5,790.5,120.5z"/>
</g>
<path fill="#294270" d="M870,138c-3.3,0-6-2.7-6-6s2.7-6,6-6s6,2.7,6,6S873.3,138,870,138z"/>
<path fill="#294270" d="M810,156c-3.3,0-6-2.7-6-6s2.7-6,6-6s6,2.7,6,6S813.3,156,810,156z"/>
<path fill="#294270" d="M888,174c-3.3,0-6-2.7-6-6s2.7-6,6-6s6,2.7,6,6S891.3,174,888,174z"/>
<path fill="#294270" d="M870,174c-3.3,0-6-2.7-6-6s2.7-6,6-6s6,2.7,6,6S873.3,174,870,174z"/>
<path fill="#294270" d="M852,174c-3.3,0-6-2.7-6-6s2.7-6,6-6s6,2.7,6,6S855.3,174,852,174z"/>
<path fill="#294270" d="M888,138c-3.3,0-6-2.7-6-6s2.7-6,6-6s6,2.7,6,6S891.3,138,888,138z"/>
<path fill-opacity="0" stroke="#65A1CF" stroke-width="2" d="M840.5,126.5v48"/>
<path fill="#294270" d="M852,138c-3.3,0-6-2.7-6-6s2.7-6,6-6s6,2.7,6,6S855.3,138,852,138z"/>
<g>
	<path fill="#8FC7ED" d="M40.5,210.5h100c5.5,0,10,4.5,10,10v40c0,5.5-4.5,10-10,10h-100c-5.5,0-10-4.5-10-10v-40
		C30.5,215,35,210.5,40.5,210.5z"/>
	<path fill-opacity="0" stroke="#294270" stroke-width="2" d="M40.5,210.5h100c5.5,0,10,4.5,10,10v40c0,5.5-4.5,10-10,10h-100
		c-5.5,0-10-4.5-10-10v-40C30.5,215,35,210.5,40.5,210.5z"/>
</g>
<path fill="#294270" d="M102,264c-3.3,0-6-2.7-6-6s2.7-6,6-6s6,2.7,6,6S105.3,264,102,264z"/>
<path fill="#294270" d="M138,228c-3.3,0-6-2.7-6-6s2.7-6,6-6s6,2.7,6,6S141.3,228,138,228z"/>
<path fill-opacity="0" stroke="#65A1CF" stroke-width="2" d="M90.5,216.5v48"/>
<g>
	<path fill="#8FC7ED" d="M190.5,210.5h100c5.5,0,10,4.5,10,10v40c0,5.5-4.5,10-10,10h-100c-5.5,0-10-4.5-10-10v-40
		C180.5,215,185,210.5,190.5,210.5z"/>
	<path fill-opacity="0" stroke="#294270" stroke-width="2" d="M190.5,210.5h100c5.5,0,10,4.5,10,10v40c0,5.5-4.5,10-10,10h-100
		c-5.5,0-10-4.5-10-10v-40C180.5,215,185,210.5,190.5,210.5z"/>
</g>
<path fill="#294270" d="M252,264c-3.3,0-6-2.7-6-6s2.7-6,6-6s6,2.7,6,6S255.3,264,252,264z"/>
<path fill="#294270" d="M288,228c-3.3,0-6-2.7-6-6s2.7-6,6-6s6,2.7,6,6S291.3,228,288,228z"/>
<path fill-opacity="0" stroke="#65A1CF" stroke-width="2" d="M240.5,216.5v48"/>
<path fill="#294270" d="M270,246c-3.3,0-6-2.7-6-6s2.7-6,6-6s6,2.7,6,6S273.3,246,270,246z"/>
<g>
	<path fill="#8FC7ED" d="M340.5,210.5h100c5.5,0,10,4.5,10,10v40c0,5.5-4.5,10-10,10h-100c-5.5,0-10-4.5-10-10v-40
		C330.5,215,335,210.5,340.5,210.5z"/>
	<path fill-opacity="0" stroke="#294270" stroke-width="2" d="M340.5,210.5h100c5.5,0,10,4.5,10,10v40c0,5.5-4.5,10-10,10h-100
		c-5.5,0-10-4.5-10-10v-40C330.5,215,335,210.5,340.5,210.5z"/>
</g>
<path fill="#294270" d="M438,264c-3.3,0-6-2.7-6-6s2.7-6,6-6s6,2.7,6,6S441.3,264,438,264z"/>
<path fill="#294270" d="M402,264c-3.3,0-6-2.7-6-6s2.7-6,6-6s6,2.7,6,6S405.3,264,402,264z"/>
<path fill="#294270" d="M438,228c-3.3,0-6-2.7-6-6s2.7-6,6-6s6,2.7,6,6S441.3,228,438,228z"/>
<path fill-opacity="0" stroke="#65A1CF" stroke-width="2" d="M390.5,216.5v48"/>
<path fill="#294270" d="M402,228c-3.3,0-6-2.7-6-6s2.7-6,6-6s6,2.7,6,6S405.3,228,402,228z"/>
<g>
	<path fill="#8FC7ED" d="M490.5,210.5h100c5.5,0,10,4.5,10,10v40c0,5.5-4.5,10-10,10h-100c-5.5,0-10-4.5-10-10v-40
		C480.5,215,485,210.5,490.5,210.5z"/>
	<path fill-opacity="0" stroke="#294270" stroke-width="2" d="M490.5,210.5h100c5.5,0,10,4.5,10,10v40c0,5.5-4.5,10-10,10h-100
		c-5.5,0-10-4.5-10-10v-40C480.5,215,485,210.5,490.5,210.5z"/>
</g>
<path fill="#294270" d="M588,264c-3.3,0-6-2.7-6-6s2.7-6,6-6s6,2.7,6,6S591.3,264,588,264z"/>
<path fill="#294270" d="M570,246c-3.3,0-6-2.7-6-6s2.7-6,6-6s6,2.7,6,6S573.3,246,570,246z"/>
<path fill="#294270" d="M552,264c-3.3,0-6-2.7-6-6s2.7-6,6-6s6,2.7,6,6S555.3,264,552,264z"/>
<path fill="#294270" d="M588,228c-3.3,0-6-2.7-6-6s2.7-6,6-6s6,2.7,6,6S591.3,228,588,228z"/>
<path fill-opacity="0" stroke="#65A1CF" stroke-width="2" d="M540.5,216.5v48"/>
<path fill="#294270" d="M552,228c-3.3,0-6-2.7-6-6s2.7-6,6-6s6,2.7,6,6S555.3,228,552,228z"/>
<g>
	<path fill="#8FC7ED" d="M640.5,210.5h100c5.5,0,10,4.5,10,10v40c0,5.5-4.5,10-10,10h-100c-5.5,0-10-4.5-10-10v-40
		C630.5,215,635,210.5,640.5,210.5z"/>
	<path fill-opacity="0" stroke="#294270" stroke-width="2" d="M640.5,210.5h100c5.5,0,10,4.5,10,10v40c0,5.5-4.5,10-10,10h-100
		c-5.5,0-10-4.5-10-10v-40C630.5,215,635,210.5,640.5,210.5z"/>
</g>
<path fill="#294270" d="M720,228c-3.3,0-6-2.7-6-6s2.7-6,6-6s6,2.7,6,6S723.3,228,720,228z"/>
<path fill="#294270" d="M738,264c-3.3,0-6-2.7-6-6s2.7-6,6-6s6,2.7,6,6S741.3,264,738,264z"/>
<path fill="#294270" d="M720,264c-3.3,0-6-2.7-6-6s2.7-6,6-6s6,2.7,6,6S723.3,264,720,264z"/>
<path fill="#294270" d="M702,264c-3.3,0-6-2.7-6-6s2.7-6,6-6s6,2.7,6,6S705.3,264,702,264z"/>
<path fill="#294270" d="M738,228c-3.3,0-6-2.7-6-6s2.7-6,6-6s6,2.7,6,6S741.3,228,738,228z"/>
<path fill-opacity="0" stroke="#65A1CF" stroke-width="2" d="M690.5,216.5v48"/>
<path fill="#294270" d="M702,228c-3.3,0-6-2.7-6-6s2.7-6,6-6s6,2.7,6,6S705.3,228,702,228z"/>
<path fill="#294270" d="M42,264c-3.3,0-6-2.7-6-6s2.7-6,6-6s6,2.7,6,6S45.3,264,42,264z"/>
<path fill="#294270" d="M78,228c-3.3,0-6-2.7-6-6s2.7-6,6-6s6,2.7,6,6S81.3,228,78,228z"/>
<path fill="#294270" d="M192,264c-3.3,0-6-2.7-6-6s2.7-6,6-6s6,2.7,6,6S195.3,264,192,264z"/>
<path fill="#294270" d="M228,228c-3.3,0-6-2.7-6-6s2.7-6,6-6s6,2.7,6,6S231.3,228,228,228z"/>
<path fill="#294270" d="M342,264c-3.3,0-6-2.7-6-6s2.7-6,6-6s6,2.7,6,6S345.3,264,342,264z"/>
<path fill="#294270" d="M378,228c-3.3,0-6-2.7-6-6s2.7-6,6-6s6,2.7,6,6S381.3,228,378,228z"/>
<path fill="#294270" d="M492,264c-3.3,0-6-2.7-6-6s2.7-6,6-6s6,2.7,6,6S495.3,264,492,264z"/>
<path fill="#294270" d="M528,228c-3.3,0-6-2.7-6-6s2.7-6,6-6s6,2.7,6,6S531.3,228,528,228z"/>
<path fill="#294270" d="M642,264c-3.3,0-6-2.7-6-6s2.7-6,6-6s6,2.7,6,6S645.3,264,642,264z"/>
<path fill="#294270" d="M678,228c-3.3,0-6-2.7-6-6s2.7-6,6-6s6,2.7,6,6S681.3,228,678,228z"/>
<g>
	<path fill="#8FC7ED" d="M490.5,300.5h100c5.5,0,10,4.5,10,10v40c0,5.5-4.5,10-10,10h-100c-5.5,0-10-4.5-10-10v-40
		C480.5,305,485,300.5,490.5,300.5z"/>
	<path fill-opacity="0" stroke="#294270" stroke-width="2" d="M490.5,300.5h100c5.5,0,10,4.5,10,10v40c0,5.5-4.5,10-10,10h-100
		c-5.5,0-10-4.5-10-10v-40C480.5,305,485,300.5,490.5,300.5z"/>
</g>
<path fill="#294270" d="M570,318c-3.3,0-6-2.7-6-6s2.7-6,6-6s6,2.7,6,6S573.3,318,570,318z"/>
<path fill="#294270" d="M552,318c-3.3,0-6-2.7-6-6s2.7-6,6-6s6,2.7,6,6S555.3,318,552,318z"/>
<path fill="#294270" d="M588,354c-3.3,0-6-2.7-6-6s2.7-6,6-6s6,2.7,6,6S591.3,354,588,354z"/>
<path fill="#294270" d="M570,354c-3.3,0-6-2.7-6-6s2.7-6,6-6s6,2.7,6,6S573.3,354,570,354z"/>
<path fill="#294270" d="M552,354c-3.3,0-6-2.7-6-6s2.7-6,6-6s6,2.7,6,6S555.3,354,552,354z"/>
<path fill="#294270" d="M588,318c-3.3,0-6-2.7-6-6s2.7-6,6-6s6,2.7,6,6S591.3,318,588,318z"/>
<path fill-opacity="0" stroke="#65A1CF" stroke-width="2" d="M540.5,306.5v48"/>
<g>
	<path fill="#8FC7ED" d="M40.5,300.5h100c5.5,0,10,4.5,10,10v40c0,5.5-4.5,10-10,10h-100c-5.5,0-10-4.5-10-10v-40
		C30.5,305,35,300.5,40.5,300.5z"/>
	<path fill-opacity="0" stroke="#294270" stroke-width="2" d="M40.5,300.5h100c5.5,0,10,4.5,10,10v40c0,5.5-4.5,10-10,10h-100
		c-5.5,0-10-4.5-10-10v-40C30.5,305,35,300.5,40.5,300.5z"/>
</g>
<path fill="#294270" d="M120,336c-3.3,0-6-2.7-6-6s2.7-6,6-6s6,2.7,6,6S123.3,336,120,336z"/>
<path fill="#294270" d="M102,354c-3.3,0-6-2.7-6-6s2.7-6,6-6s6,2.7,6,6S105.3,354,102,354z"/>
<path fill="#294270" d="M138,318c-3.3,0-6-2.7-6-6s2.7-6,6-6s6,2.7,6,6S141.3,318,138,318z"/>
<path fill-opacity="0" stroke="#65A1CF" stroke-width="2" d="M90.5,306.5v48"/>
<g>
	<path fill="#8FC7ED" d="M190.5,300.5h100c5.5,0,10,4.5,10,10v40c0,5.5-4.5,10-10,10h-100c-5.5,0-10-4.5-10-10v-40
		C180.5,305,185,300.5,190.5,300.5z"/>
	<path fill-opacity="0" stroke="#294270" stroke-width="2" d="M190.5,300.5h100c5.5,0,10,4.5,10,10v40c0,5.5-4.5,10-10,10h-100
		c-5.5,0-10-4.5-10-10v-40C180.5,305,185,300.5,190.5,300.5z"/>
</g>
<path fill="#294270" d="M252,318c-3.3,0-6-2.7-6-6s2.7-6,6-6s6,2.7,6,6S255.3,318,252,318z"/>
<path fill="#294270" d="M288,354c-3.3,0-6-2.7-6-6s2.7-6,6-6s6,2.7,6,6S291.3,354,288,354z"/>
<path fill="#294270" d="M252,354c-3.3,0-6-2.7-6-6s2.7-6,6-6s6,2.7,6,6S255.3,354,252,354z"/>
<path fill="#294270" d="M288,318c-3.3,0-6-2.7-6-6s2.7-6,6-6s6,2.7,6,6S291.3,318,288,318z"/>
<path fill-opacity="0" stroke="#65A1CF" stroke-width="2" d="M240.5,306.5v48"/>
<g>
	<path fill="#8FC7ED" d="M340.5,300.5h100c5.5,0,10,4.5,10,10v40c0,5.5-4.5,10-10,10h-100c-5.5,0-10-4.5-10-10v-40
		C330.5,305,335,300.5,340.5,300.5z"/>
	<path fill-opacity="0" stroke="#294270" stroke-width="2" d="M340.5,300.5h100c5.5,0,10,4.5,10,10v40c0,5.5-4.5,10-10,10h-100
		c-5.5,0-10-4.5-10-10v-40C330.5,305,335,300.5,340.5,300.5z"/>
</g>
<path fill="#294270" d="M402,318c-3.3,0-6-2.7-6-6s2.7-6,6-6s6,2.7,6,6S405.3,318,402,318z"/>
<path fill="#294270" d="M438,354c-3.3,0-6-2.7-6-6s2.7-6,6-6s6,2.7,6,6S441.3,354,438,354z"/>
<path fill="#294270" d="M420,336c-3.3,0-6-2.7-6-6s2.7-6,6-6s6,2.7,6,6S423.3,336,420,336z"/>
<path fill="#294270" d="M402,354c-3.3,0-6-2.7-6-6s2.7-6,6-6s6,2.7,6,6S405.3,354,402,354z"/>
<path fill="#294270" d="M438,318c-3.3,0-6-2.7-6-6s2.7-6,6-6s6,2.7,6,6S441.3,318,438,318z"/>
<path fill-opacity="0" stroke="#65A1CF" stroke-width="2" d="M390.5,306.5v48"/>
<path fill="#294270" d="M60,336c-3.3,0-6-2.7-6-6s2.7-6,6-6s6,2.7,6,6S63.3,336,60,336z"/>
<path fill="#294270" d="M42,354c-3.3,0-6-2.7-6-6s2.7-6,6-6s6,2.7,6,6S45.3,354,42,354z"/>
<path fill="#294270" d="M78,318c-3.3,0-6-2.7-6-6s2.7-6,6-6s6,2.7,6,6S81.3,318,78,318z"/>
<path fill="#294270" d="M210,336c-3.3,0-6-2.7-6-6s2.7-6,6-6s6,2.7,6,6S213.3,336,210,336z"/>
<path fill="#294270" d="M192,354c-3.3,0-6-2.7-6-6s2.7-6,6-6s6,2.7,6,6S195.3,354,192,354z"/>
<path fill="#294270" d="M228,318c-3.3,0-6-2.7-6-6s2.7-6,6-6s6,2.7,6,6S231.3,318,228,318z"/>
<path fill="#294270" d="M360,336c-3.3,0-6-2.7-6-6s2.7-6,6-6s6,2.7,6,6S363.3,336,360,336z"/>
<path fill="#294270" d="M342,354c-3.3,0-6-2.7-6-6s2.7-6,6-6s6,2.7,6,6S345.3,354,342,354z"/>
<path fill="#294270" d="M378,318c-3.3,0-6-2.7-6-6s2.7-6,6-6s6,2.7,6,6S381.3,318,378,318z"/>
<path fill="#294270" d="M510,336c-3.3,0-6-2.7-6-6s2.7-6,6-6c3.3,0,6,2.7,6,6S513.3,336,510,336z"/>
<path fill="#294270" d="M492,354c-3.3,0-6-2.7-6-6s2.7-6,6-6s6,2.7,6,6S495.3,354,492,354z"/>
<path fill="#294270" d="M528,318c-3.3,0-6-2.7-6-6s2.7-6,6-6s6,2.7,6,6S531.3,318,528,318z"/>
<g>
	<path fill="#8FC7ED" d="M340.5,390.5h100c5.5,0,10,4.5,10,10v40c0,5.5-4.5,10-10,10h-100c-5.5,0-10-4.5-10-10v-40
		C330.5,395,335,390.5,340.5,390.5z"/>
	<path fill-opacity="0" stroke="#294270" stroke-width="2" d="M340.5,390.5h100c5.5,0,10,4.5,10,10v40c0,5.5-4.5,10-10,10h-100
		c-5.5,0-10-4.5-10-10v-40C330.5,395,335,390.5,340.5,390.5z"/>
</g>
<path fill="#294270" d="M420,408c-3.3,0-6-2.7-6-6s2.7-6,6-6s6,2.7,6,6S423.3,408,420,408z"/>
<path fill="#294270" d="M402,408c-3.3,0-6-2.7-6-6s2.7-6,6-6s6,2.7,6,6S405.3,408,402,408z"/>
<path fill="#294270" d="M438,444c-3.3,0-6-2.7-6-6s2.7-6,6-6s6,2.7,6,6S441.3,444,438,444z"/>
<path fill="#294270" d="M420,444c-3.3,0-6-2.7-6-6s2.7-6,6-6s6,2.7,6,6S423.3,444,420,444z"/>
<path fill="#294270" d="M402,444c-3.3,0-6-2.7-6-6s2.7-6,6-6s6,2.7,6,6S405.3,444,402,444z"/>
<path fill="#294270" d="M438,408c-3.3,0-6-2.7-6-6s2.7-6,6-6s6,2.7,6,6S441.3,408,438,408z"/>
<path fill-opacity="0" stroke="#65A1CF" stroke-width="2" d="M390.5,396.5v48"/>
<g>
	<path fill="#8FC7ED" d="M40.5,390.5h100c5.5,0,10,4.5,10,10v40c0,5.5-4.5,10-10,10h-100c-5.5,0-10-4.5-10-10v-40
		C30.5,395,35,390.5,40.5,390.5z"/>
	<path fill-opacity="0" stroke="#294270" stroke-width="2" d="M40.5,390.5h100c5.5,0,10,4.5,10,10v40c0,5.5-4.5,10-10,10h-100
		c-5.5,0-10-4.5-10-10v-40C30.5,395,35,390.5,40.5,390.5z"/>
</g>
<path fill="#294270" d="M102,408c-3.3,0-6-2.7-6-6s2.7-6,6-6s6,2.7,6,6S105.3,408,102,408z"/>
<path fill="#294270" d="M138,444c-3.3,0-6-2.7-6-6s2.7-6,6-6s6,2.7,6,6S141.3,444,138,444z"/>
<path fill="#294270" d="M102,444c-3.3,0-6-2.7-6-6s2.7-6,6-6s6,2.7,6,6S105.3,444,102,444z"/>
<path fill="#294270" d="M138,408c-3.3,0-6-2.7-6-6s2.7-6,6-6s6,2.7,6,6S141.3,408,138,408z"/>
<path fill-opacity="0" stroke="#65A1CF" stroke-width="2" d="M90.5,396.5v48"/>
<g>
	<path fill="#8FC7ED" d="M190.5,390.5h100c5.5,0,10,4.5,10,10v40c0,5.5-4.5,10-10,10h-100c-5.5,0-10-4.5-10-10v-40
		C180.5,395,185,390.5,190.5,390.5z"/>
	<path fill-opacity="0" stroke="#294270" stroke-width="2" d="M190.5,390.5h100c5.5,0,10,4.5,10,10v40c0,5.5-4.5,10-10,10h-100
		c-5.5,0-10-4.5-10-10v-40C180.5,395,185,390.5,190.5,390.5z"/>
</g>
<path fill="#294270" d="M252,408c-3.3,0-6-2.7-6-6s2.7-6,6-6s6,2.7,6,6S255.3,408,252,408z"/>
<path fill="#294270" d="M288,444c-3.3,0-6-2.7-6-6s2.7-6,6-6s6,2.7,6,6S291.3,444,288,444z"/>
<path fill="#294270" d="M270,426c-3.3,0-6-2.7-6-6s2.7-6,6-6s6,2.7,6,6S273.3,426,270,426z"/>
<path fill="#294270" d="M252,444c-3.3,0-6-2.7-6-6s2.7-6,6-6s6,2.7,6,6S255.3,444,252,444z"/>
<path fill="#294270" d="M288,408c-3.3,0-6-2.7-6-6s2.7-6,6-6s6,2.7,6,6S291.3,408,288,408z"/>
<path fill-opacity="0" stroke="#65A1CF" stroke-width="2" d="M240.5,396.5v48"/>
<g>
	<path fill="#8FC7ED" d="M190.5,480.5h100c5.5,0,10,4.5,10,10v40c0,5.5-4.5,10-10,10h-100c-5.5,0-10-4.5-10-10v-40
		C180.5,485,185,480.5,190.5,480.5z"/>
	<path fill-opacity="0" stroke="#294270" stroke-width="2" d="M190.5,480.5h100c5.5,0,10,4.5,10,10v40c0,5.5-4.5,10-10,10h-100
		c-5.5,0-10-4.5-10-10v-40C180.5,485,185,480.5,190.5,480.5z"/>
</g>
<path fill="#294270" d="M270,498c-3.3,0-6-2.7-6-6s2.7-6,6-6s6,2.7,6,6S273.3,498,270,498z"/>
<path fill="#294270" d="M252,498c-3.3,0-6-2.7-6-6s2.7-6,6-6s6,2.7,6,6S255.3,498,252,498z"/>
<path fill="#294270" d="M288,534c-3.3,0-6-2.7-6-6s2.7-6,6-6s6,2.7,6,6S291.3,534,288,534z"/>
<path fill="#294270" d="M270,534c-3.3,0-6-2.7-6-6s2.7-6,6-6s6,2.7,6,6S273.3,534,270,534z"/>
<path fill="#294270" d="M252,534c-3.3,0-6-2.7-6-6s2.7-6,6-6s6,2.7,6,6S255.3,534,252,534z"/>
<path fill="#294270" d="M288,498c-3.3,0-6-2.7-6-6s2.7-6,6-6s6,2.7,6,6S291.3,498,288,498z"/>
<path fill-opacity="0" stroke="#65A1CF" stroke-width="2" d="M240.5,486.5v48"/>
<g>
	<path fill="#8FC7ED" d="M40.5,480.5h100c5.5,0,10,4.5,10,10v40c0,5.5-4.5,10-10,10h-100c-5.5,0-10-4.5-10-10v-40
		C30.5,485,35,480.5,40.5,480.5z"/>
	<path fill-opacity="0" stroke="#294270" stroke-width="2" d="M40.5,480.5h100c5.5,0,10,4.5,10,10v40c0,5.5-4.5,10-10,10h-100
		c-5.5,0-10-4.5-10-10v-40C30.5,485,35,480.5,40.5,480.5z"/>
</g>
<path fill="#294270" d="M102,498c-3.3,0-6-2.7-6-6s2.7-6,6-6s6,2.7,6,6S105.3,498,102,498z"/>
<path fill="#294270" d="M138,534c-3.3,0-6-2.7-6-6s2.7-6,6-6s6,2.7,6,6S141.3,534,138,534z"/>
<path fill="#294270" d="M120,516c-3.3,0-6-2.7-6-6c0-3.3,2.7-6,6-6s6,2.7,6,6C126,513.3,123.3,516,120,516z"/>
<path fill="#294270" d="M102,534c-3.3,0-6-2.7-6-6s2.7-6,6-6s6,2.7,6,6S105.3,534,102,534z"/>
<path fill="#294270" d="M138,498c-3.3,0-6-2.7-6-6s2.7-6,6-6s6,2.7,6,6S141.3,498,138,498z"/>
<path fill-opacity="0" stroke="#65A1CF" stroke-width="2" d="M90.5,486.5v48"/>
<g>
	<path fill="#8FC7ED" d="M40.5,570.5h100c5.5,0,10,4.5,10,10v40c0,5.5-4.5,10-10,10h-100c-5.5,0-10-4.5-10-10v-40
		C30.5,575,35,570.5,40.5,570.5z"/>
	<path fill-opacity="0" stroke="#294270" stroke-width="2" d="M40.5,570.5h100c5.5,0,10,4.5,10,10v40c0,5.5-4.5,10-10,10h-100
		c-5.5,0-10-4.5-10-10v-40C30.5,575,35,570.5,40.5,570.5z"/>
</g>
<path fill="#294270" d="M120,588c-3.3,0-6-2.7-6-6s2.7-6,6-6s6,2.7,6,6S123.3,588,120,588z"/>
<path fill="#294270" d="M102,588c-3.3,0-6-2.7-6-6s2.7-6,6-6s6,2.7,6,6S105.3,588,102,588z"/>
<path fill="#294270" d="M138,624c-3.3,0-6-2.7-6-6s2.7-6,6-6s6,2.7,6,6S141.3,624,138,624z"/>
<path fill="#294270" d="M120,624c-3.3,0-6-2.7-6-6s2.7-6,6-6s6,2.7,6,6S123.3,624,120,624z"/>
<path fill="#294270" d="M102,624c-3.3,0-6-2.7-6-6s2.7-6,6-6s6,2.7,6,6S105.3,624,102,624z"/>
<path fill="#294270" d="M138,588c-3.3,0-6-2.7-6-6s2.7-6,6-6s6,2.7,6,6S141.3,588,138,588z"/>
<path fill-opacity="0" stroke="#65A1CF" stroke-width="2" d="M90.5,576.5v48"/>
<path fill="#294270" d="M60,588c-3.3,0-6-2.7-6-6s2.7-6,6-6s6,2.7,6,6S63.3,588,60,588z"/>
<path fill="#294270" d="M42,588c-3.3,0-6-2.7-6-6s2.7-6,6-6s6,2.7,6,6S45.3,588,42,588z"/>
<path fill="#294270" d="M78,624c-3.3,0-6-2.7-6-6s2.7-6,6-6s6,2.7,6,6S81.3,624,78,624z"/>
<path fill="#294270" d="M60,624c-3.3,0-6-2.7-6-6s2.7-6,6-6s6,2.7,6,6S63.3,624,60,624z"/>
<path fill="#294270" d="M42,624c-3.3,0-6-2.7-6-6s2.7-6,6-6s6,2.7,6,6S45.3,624,42,624z"/>
<path fill="#294270" d="M78,588c-3.3,0-6-2.7-6-6s2.7-6,6-6s6,2.7,6,6S81.3,588,78,588z"/>
<path fill="#294270" d="M42,498c-3.3,0-6-2.7-6-6s2.7-6,6-6s6,2.7,6,6S45.3,498,42,498z"/>
<path fill="#294270" d="M78,534c-3.3,0-6-2.7-6-6s2.7-6,6-6s6,2.7,6,6S81.3,534,78,534z"/>
<path fill="#294270" d="M60,516c-3.3,0-6-2.7-6-6c0-3.3,2.7-6,6-6s6,2.7,6,6C66,513.3,63.3,516,60,516z"/>
<path fill="#294270" d="M42,534c-3.3,0-6-2.7-6-6s2.7-6,6-6s6,2.7,6,6S45.3,534,42,534z"/>
<path fill="#294270" d="M78,498c-3.3,0-6-2.7-6-6s2.7-6,6-6s6,2.7,6,6S81.3,498,78,498z"/>
<path fill="#294270" d="M192,498c-3.3,0-6-2.7-6-6s2.7-6,6-6s6,2.7,6,6S195.3,498,192,498z"/>
<path fill="#294270" d="M228,534c-3.3,0-6-2.7-6-6s2.7-6,6-6s6,2.7,6,6S231.3,534,228,534z"/>
<path fill="#294270" d="M210,516c-3.3,0-6-2.7-6-6c0-3.3,2.7-6,6-6s6,2.7,6,6C216,513.3,213.3,516,210,516z"/>
<path fill="#294270" d="M192,534c-3.3,0-6-2.7-6-6s2.7-6,6-6s6,2.7,6,6S195.3,534,192,534z"/>
<path fill="#294270" d="M228,498c-3.3,0-6-2.7-6-6s2.7-6,6-6s6,2.7,6,6S231.3,498,228,498z"/>
<path fill="#294270" d="M42,408c-3.3,0-6-2.7-6-6s2.7-6,6-6s6,2.7,6,6S45.3,408,42,408z"/>
<path fill="#294270" d="M78,444c-3.3,0-6-2.7-6-6s2.7-6,6-6s6,2.7,6,6S81.3,444,78,444z"/>
<path fill="#294270" d="M42,444c-3.3,0-6-2.7-6-6s2.7-6,6-6s6,2.7,6,6S45.3,444,42,444z"/>
<path fill="#294270" d="M78,408c-3.3,0-6-2.7-6-6s2.7-6,6-6s6,2.7,6,6S81.3,408,78,408z"/>
<path fill="#294270" d="M192,408c-3.3,0-6-2.7-6-6s2.7-6,6-6s6,2.7,6,6S195.3,408,192,408z"/>
<path fill="#294270" d="M228,444c-3.3,0-6-2.7-6-6s2.7-6,6-6s6,2.7,6,6S231.3,444,228,444z"/>
<path fill="#294270" d="M192,444c-3.3,0-6-2.7-6-6s2.7-6,6-6s6,2.7,6,6S195.3,444,192,444z"/>
<path fill="#294270" d="M228,408c-3.3,0-6-2.7-6-6s2.7-6,6-6s6,2.7,6,6S231.3,408,228,408z"/>
<path fill="#294270" d="M342,408c-3.3,0-6-2.7-6-6s2.7-6,6-6s6,2.7,6,6S345.3,408,342,408z"/>
<path fill="#294270" d="M378,444c-3.3,0-6-2.7-6-6s2.7-6,6-6s6,2.7,6,6S381.3,444,378,444z"/>
<path fill="#294270" d="M342,444c-3.3,0-6-2.7-6-6s2.7-6,6-6s6,2.7,6,6S345.3,444,342,444z"/>
<path fill="#294270" d="M378,408c-3.3,0-6-2.7-6-6s2.7-6,6-6s6,2.7,6,6S381.3,408,378,408z"/>
</svg>
