<?xml version="1.0" encoding="UTF-8"?>
<!DOCTYPE svg PUBLIC "-//W3C//DTD SVG 1.1//EN" "http://www.w3.org/Graphics/SVG/1.1/DTD/svg11.dtd">
<svg version="1.1" xmlns="http://www.w3.org/2000/svg" xmlns:xlink="http://www.w3.org/1999/xlink" x="0px" y="0px" width="1080" height="660" viewBox="0, 0, 1080, 660">
  <g id="Background">
    <rect x="0" y="0" width="1080" height="660" fill="#000000" fill-opacity="0"/>
  </g>
  <g id="Layer 1">
    <g>
      <path d="M40.5,30.5 L140.5,30.5 C146.023,30.5 150.5,34.977 150.5,40.5 L150.5,80.5 C150.5,86.023 146.023,90.5 140.5,90.5 L40.5,90.5 C34.977,90.5 30.5,86.023 30.5,80.5 L30.5,40.5 C30.5,34.977 34.977,30.5 40.5,30.5 z" fill="#8FC7ED"/>
      <path d="M40.5,30.5 L140.5,30.5 C146.023,30.5 150.5,34.977 150.5,40.5 L150.5,80.5 C150.5,86.023 146.023,90.5 140.5,90.5 L40.5,90.5 C34.977,90.5 30.5,86.023 30.5,80.5 L30.5,40.5 C30.5,34.977 34.977,30.5 40.5,30.5 z" fill-opacity="0" stroke="#294270" stroke-width="2"/>
    </g>
    <g>
      <path d="M190.5,30.5 L290.5,30.5 C296.023,30.5 300.5,34.977 300.5,40.5 L300.5,80.5 C300.5,86.023 296.023,90.5 290.5,90.5 L190.5,90.5 C184.977,90.5 180.5,86.023 180.5,80.5 L180.5,40.5 C180.5,34.977 184.977,30.5 190.5,30.5 z" fill="#8FC7ED"/>
      <path d="M190.5,30.5 L290.5,30.5 C296.023,30.5 300.5,34.977 300.5,40.5 L300.5,80.5 C300.5,86.023 296.023,90.5 290.5,90.5 L190.5,90.5 C184.977,90.5 180.5,86.023 180.5,80.5 L180.5,40.5 C180.5,34.977 184.977,30.5 190.5,30.5 z" fill-opacity="0" stroke="#294270" stroke-width="2"/>
    </g>
    <g>
      <path d="M940.5,30.5 L1040.5,30.5 C1046.023,30.5 1050.5,34.977 1050.5,40.5 L1050.5,80.5 C1050.5,86.023 1046.023,90.5 1040.5,90.5 L940.5,90.5 C934.977,90.5 930.5,86.023 930.5,80.5 L930.5,40.5 C930.5,34.977 934.977,30.5 940.5,30.5 z" fill="#8FC7ED"/>
      <path d="M940.5,30.5 L1040.5,30.5 C1046.023,30.5 1050.5,34.977 1050.5,40.5 L1050.5,80.5 C1050.5,86.023 1046.023,90.5 1040.5,90.5 L940.5,90.5 C934.977,90.5 930.5,86.023 930.5,80.5 L930.5,40.5 C930.5,34.977 934.977,30.5 940.5,30.5 z" fill-opacity="0" stroke="#294270" stroke-width="2"/>
    </g>
    <path d="M1020,48 C1016.686,48 1014,45.314 1014,42 C1014,38.686 1016.686,36 1020,36 C1023.314,36 1026,38.686 1026,42 C1026,45.314 1023.314,48 1020,48 z" fill="#294270"/>
    <path d="M1002,48 C998.686,48 996,45.314 996,42 C996,38.686 998.686,36 1002,36 C1005.314,36 1008,38.686 1008,42 C1008,45.314 1005.314,48 1002,48 z" fill="#294270"/>
    <path d="M1038,84 C1034.686,84 1032,81.314 1032,78 C1032,74.686 1034.686,72 1038,72 C1041.314,72 1044,74.686 1044,78 C1044,81.314 1041.314,84 1038,84 z" fill="#294270"/>
    <path d="M1020,84 C1016.686,84 1014,81.314 1014,78 C1014,74.686 1016.686,72 1020,72 C1023.314,72 1026,74.686 1026,78 C1026,81.314 1023.314,84 1020,84 z" fill="#294270"/>
    <path d="M1002,84 C998.686,84 996,81.314 996,78 C996,74.686 998.686,72 1002,72 C1005.314,72 1008,74.686 1008,78 C1008,81.314 1005.314,84 1002,84 z" fill="#294270"/>
    <path d="M1038,48 C1034.686,48 1032,45.314 1032,42 C1032,38.686 1034.686,36 1038,36 C1041.314,36 1044,38.686 1044,42 C1044,45.314 1041.314,48 1038,48 z" fill="#294270"/>
    <path d="M288,48 C284.686,48 282,45.314 282,42 C282,38.686 284.686,36 288,36 C291.314,36 294,38.686 294,42 C294,45.314 291.314,48 288,48 z" fill="#294270"/>
    <path d="M252,84 C248.686,84 246,81.314 246,78 C246,74.686 248.686,72 252,72 C255.314,72 258,74.686 258,78 C258,81.314 255.314,84 252,84 z" fill="#294270"/>
    <path d="M90.5,36.5 L90.5,84.5" fill-opacity="0" stroke="#65A1CF" stroke-width="2"/>
    <path d="M240.5,36.5 L240.5,84.5" fill-opacity="0" stroke="#65A1CF" stroke-width="2"/>
    <path d="M990.5,36.5 L990.5,84.5" fill-opacity="0" stroke="#65A1CF" stroke-width="2"/>
    <g>
      <path d="M340.5,30.5 L440.5,30.5 C446.023,30.5 450.5,34.977 450.5,40.5 L450.5,80.5 C450.5,86.023 446.023,90.5 440.5,90.5 L340.5,90.5 C334.977,90.5 330.5,86.023 330.5,80.5 L330.5,40.5 C330.5,34.977 334.977,30.5 340.5,30.5 z" fill="#8FC7ED"/>
      <path d="M340.5,30.5 L440.5,30.5 C446.023,30.5 450.5,34.977 450.5,40.5 L450.5,80.5 C450.5,86.023 446.023,90.5 440.5,90.5 L340.5,90.5 C334.977,90.5 330.5,86.023 330.5,80.5 L330.5,40.5 C330.5,34.977 334.977,30.5 340.5,30.5 z" fill-opacity="0" stroke="#294270" stroke-width="2"/>
    </g>
    <path d="M402,84 C398.686,84 396,81.314 396,78 C396,74.686 398.686,72 402,72 C405.314,72 408,74.686 408,78 C408,81.314 405.314,84 402,84 z" fill="#294270"/>
    <path d="M438,48 C434.686,48 432,45.314 432,42 C432,38.686 434.686,36 438,36 C441.314,36 444,38.686 444,42 C444,45.314 441.314,48 438,48 z" fill="#294270"/>
    <path d="M390.5,36.5 L390.5,84.5" fill-opacity="0" stroke="#65A1CF" stroke-width="2"/>
    <g>
      <path d="M490.5,30.5 L590.5,30.5 C596.023,30.5 600.5,34.977 600.5,40.5 L600.5,80.5 C600.5,86.023 596.023,90.5 590.5,90.5 L490.5,90.5 C484.977,90.5 480.5,86.023 480.5,80.5 L480.5,40.5 C480.5,34.977 484.977,30.5 490.5,30.5 z" fill="#8FC7ED"/>
      <path d="M490.5,30.5 L590.5,30.5 C596.023,30.5 600.5,34.977 600.5,40.5 L600.5,80.5 C600.5,86.023 596.023,90.5 590.5,90.5 L490.5,90.5 C484.977,90.5 480.5,86.023 480.5,80.5 L480.5,40.5 C480.5,34.977 484.977,30.5 490.5,30.5 z" fill-opacity="0" stroke="#294270" stroke-width="2"/>
    </g>
    <path d="M570,66 C566.686,66 564,63.314 564,60 C564,56.686 566.686,54 570,54 C573.314,54 576,56.686 576,60 C576,63.314 573.314,66 570,66 z" fill="#294270"/>
    <path d="M552,84 C548.686,84 546,81.314 546,78 C546,74.686 548.686,72 552,72 C555.314,72 558,74.686 558,78 C558,81.314 555.314,84 552,84 z" fill="#294270"/>
    <path d="M588,48 C584.686,48 582,45.314 582,42 C582,38.686 584.686,36 588,36 C591.314,36 594,38.686 594,42 C594,45.314 591.314,48 588,48 z" fill="#294270"/>
    <path d="M540.5,36.5 L540.5,84.5" fill-opacity="0" stroke="#65A1CF" stroke-width="2"/>
    <g>
      <path d="M640.5,30.5 L740.5,30.5 C746.023,30.5 750.5,34.977 750.5,40.5 L750.5,80.5 C750.5,86.023 746.023,90.5 740.5,90.5 L640.5,90.5 C634.977,90.5 630.5,86.023 630.5,80.5 L630.5,40.5 C630.5,34.977 634.977,30.5 640.5,30.5 z" fill="#8FC7ED"/>
      <path d="M640.5,30.5 L740.5,30.5 C746.023,30.5 750.5,34.977 750.5,40.5 L750.5,80.5 C750.5,86.023 746.023,90.5 740.5,90.5 L640.5,90.5 C634.977,90.5 630.5,86.023 630.5,80.5 L630.5,40.5 C630.5,34.977 634.977,30.5 640.5,30.5 z" fill-opacity="0" stroke="#294270" stroke-width="2"/>
    </g>
    <path d="M702,48 C698.686,48 696,45.314 696,42 C696,38.686 698.686,36 702,36 C705.314,36 708,38.686 708,42 C708,45.314 705.314,48 702,48 z" fill="#294270"/>
    <path d="M738,84 C734.686,84 732,81.314 732,78 C732,74.686 734.686,72 738,72 C741.314,72 744,74.686 744,78 C744,81.314 741.314,84 738,84 z" fill="#294270"/>
    <path d="M702,84 C698.686,84 696,81.314 696,78 C696,74.686 698.686,72 702,72 C705.314,72 708,74.686 708,78 C708,81.314 705.314,84 702,84 z" fill="#294270"/>
    <path d="M738,48 C734.686,48 732,45.314 732,42 C732,38.686 734.686,36 738,36 C741.314,36 744,38.686 744,42 C744,45.314 741.314,48 738,48 z" fill="#294270"/>
    <path d="M690.5,36.5 L690.5,84.5" fill-opacity="0" stroke="#65A1CF" stroke-width="2"/>
    <g>
      <path d="M790.5,30.5 L890.5,30.5 C896.023,30.5 900.5,34.977 900.5,40.5 L900.5,80.5 C900.5,86.023 896.023,90.5 890.5,90.5 L790.5,90.5 C784.977,90.5 780.5,86.023 780.5,80.5 L780.5,40.5 C780.5,34.977 784.977,30.5 790.5,30.5 z" fill="#8FC7ED"/>
      <path d="M790.5,30.5 L890.5,30.5 C896.023,30.5 900.5,34.977 900.5,40.5 L900.5,80.5 C900.5,86.023 896.023,90.5 890.5,90.5 L790.5,90.5 C784.977,90.5 780.5,86.023 780.5,80.5 L780.5,40.5 C780.5,34.977 784.977,30.5 790.5,30.5 z" fill-opacity="0" stroke="#294270" stroke-width="2"/>
    </g>
    <path d="M852,48 C848.686,48 846,45.314 846,42 C846,38.686 848.686,36 852,36 C855.314,36 858,38.686 858,42 C858,45.314 855.314,48 852,48 z" fill="#294270"/>
    <path d="M888,84 C884.686,84 882,81.314 882,78 C882,74.686 884.686,72 888,72 C891.314,72 894,74.686 894,78 C894,81.314 891.314,84 888,84 z" fill="#294270"/>
    <path d="M870,66 C866.686,66 864,63.314 864,60 C864,56.686 866.686,54 870,54 C873.314,54 876,56.686 876,60 C876,63.314 873.314,66 870,66 z" fill="#294270"/>
    <path d="M852,84 C848.686,84 846,81.314 846,78 C846,74.686 848.686,72 852,72 C855.314,72 858,74.686 858,78 C858,81.314 855.314,84 852,84 z" fill="#294270"/>
    <path d="M888,48 C884.686,48 882,45.314 882,42 C882,38.686 884.686,36 888,36 C891.314,36 894,38.686 894,42 C894,45.314 891.314,48 888,48 z" fill="#294270"/>
    <path d="M840.5,36.5 L840.5,84.5" fill-opacity="0" stroke="#65A1CF" stroke-width="2"/>
    <g>
      <path d="M40.5,120.5 L140.5,120.5 C146.023,120.5 150.5,124.977 150.5,130.5 L150.5,170.5 C150.5,176.023 146.023,180.5 140.5,180.5 L40.5,180.5 C34.977,180.5 30.5,176.023 30.5,170.5 L30.5,130.5 C30.5,124.977 34.977,120.5 40.5,120.5 z" fill="#8FC7ED"/>
      <path d="M40.5,120.5 L140.5,120.5 C146.023,120.5 150.5,124.977 150.5,130.5 L150.5,170.5 C150.5,176.023 146.023,180.5 140.5,180.5 L40.5,180.5 C34.977,180.5 30.5,176.023 30.5,170.5 L30.5,130.5 C30.5,124.977 34.977,120.5 40.5,120.5 z" fill-opacity="0" stroke="#294270" stroke-width="2"/>
    </g>
    <path d="M60,156 C56.686,156 54,153.314 54,150 C54,146.686 56.686,144 60,144 C63.314,144 66,146.686 66,150 C66,153.314 63.314,156 60,156 z" fill="#294270"/>
    <path d="M120,156 C116.686,156 114,153.314 114,150 C114,146.686 116.686,144 120,144 C123.314,144 126,146.686 126,150 C126,153.314 123.314,156 120,156 z" fill="#294270"/>
    <path d="M90.5,126.5 L90.5,174.5" fill-opacity="0" stroke="#65A1CF" stroke-width="2"/>
    <g>
      <path d="M190.5,120.5 L290.5,120.5 C296.023,120.5 300.5,124.977 300.5,130.5 L300.5,170.5 C300.5,176.023 296.023,180.5 290.5,180.5 L190.5,180.5 C184.977,180.5 180.5,176.023 180.5,170.5 L180.5,130.5 C180.5,124.977 184.977,120.5 190.5,120.5 z" fill="#8FC7ED"/>
      <path d="M190.5,120.5 L290.5,120.5 C296.023,120.5 300.5,124.977 300.5,130.5 L300.5,170.5 C300.5,176.023 296.023,180.5 290.5,180.5 L190.5,180.5 C184.977,180.5 180.5,176.023 180.5,170.5 L180.5,130.5 C180.5,124.977 184.977,120.5 190.5,120.5 z" fill-opacity="0" stroke="#294270" stroke-width="2"/>
    </g>
    <path d="M210,156 C206.686,156 204,153.314 204,150 C204,146.686 206.686,144 210,144 C213.314,144 216,146.686 216,150 C216,153.314 213.314,156 210,156 z" fill="#294270"/>
    <path d="M252,174 C248.686,174 246,171.314 246,168 C246,164.686 248.686,162 252,162 C255.314,162 258,164.686 258,168 C258,171.314 255.314,174 252,174 z" fill="#294270"/>
    <path d="M288,138 C284.686,138 282,135.314 282,132 C282,128.686 284.686,126 288,126 C291.314,126 294,128.686 294,132 C294,135.314 291.314,138 288,138 z" fill="#294270"/>
    <path d="M240.5,126.5 L240.5,174.5" fill-opacity="0" stroke="#65A1CF" stroke-width="2"/>
    <g>
      <path d="M340.5,120.5 L440.5,120.5 C446.023,120.5 450.5,124.977 450.5,130.5 L450.5,170.5 C450.5,176.023 446.023,180.5 440.5,180.5 L340.5,180.5 C334.977,180.5 330.5,176.023 330.5,170.5 L330.5,130.5 C330.5,124.977 334.977,120.5 340.5,120.5 z" fill="#8FC7ED"/>
      <path d="M340.5,120.5 L440.5,120.5 C446.023,120.5 450.5,124.977 450.5,130.5 L450.5,170.5 C450.5,176.023 446.023,180.5 440.5,180.5 L340.5,180.5 C334.977,180.5 330.5,176.023 330.5,170.5 L330.5,130.5 C330.5,124.977 334.977,120.5 340.5,120.5 z" fill-opacity="0" stroke="#294270" stroke-width="2"/>
    </g>
    <path d="M360,156 C356.686,156 354,153.314 354,150 C354,146.686 356.686,144 360,144 C363.314,144 366,146.686 366,150 C366,153.314 363.314,156 360,156 z" fill="#294270"/>
    <path d="M402,174 C398.686,174 396,171.314 396,168 C396,164.686 398.686,162 402,162 C405.314,162 408,164.686 408,168 C408,171.314 405.314,174 402,174 z" fill="#294270"/>
    <path d="M438,138 C434.686,138 432,135.314 432,132 C432,128.686 434.686,126 438,126 C441.314,126 444,128.686 444,132 C444,135.314 441.314,138 438,138 z" fill="#294270"/>
    <path d="M390.5,126.5 L390.5,174.5" fill-opacity="0" stroke="#65A1CF" stroke-width="2"/>
    <path d="M420,156 C416.686,156 414,153.314 414,150 C414,146.686 416.686,144 420,144 C423.314,144 426,146.686 426,150 C426,153.314 423.314,156 420,156 z" fill="#294270"/>
    <g>
      <path d="M490.5,120.5 L590.5,120.5 C596.023,120.5 600.5,124.977 600.5,130.5 L600.5,170.5 C600.5,176.023 596.023,180.5 590.5,180.5 L490.5,180.5 C484.977,180.5 480.5,176.023 480.5,170.5 L480.5,130.5 C480.5,124.977 484.977,120.5 490.5,120.5 z" fill="#8FC7ED"/>
      <path d="M490.5,120.5 L590.5,120.5 C596.023,120.5 600.5,124.977 600.5,130.5 L600.5,170.5 C600.5,176.023 596.023,180.5 590.5,180.5 L490.5,180.5 C484.977,180.5 480.5,176.023 480.5,170.5 L480.5,130.5 C480.5,124.977 484.977,120.5 490.5,120.5 z" fill-opacity="0" stroke="#294270" stroke-width="2"/>
    </g>
    <path d="M510,156 C506.686,156 504,153.314 504,150 C504,146.686 506.686,144 510,144 C513.314,144 516,146.686 516,150 C516,153.314 513.314,156 510,156 z" fill="#294270"/>
    <path d="M588,174 C584.686,174 582,171.314 582,168 C582,164.686 584.686,162 588,162 C591.314,162 594,164.686 594,168 C594,171.314 591.314,174 588,174 z" fill="#294270"/>
    <path d="M552,174 C548.686,174 546,171.314 546,168 C546,164.686 548.686,162 552,162 C555.314,162 558,164.686 558,168 C558,171.314 555.314,174 552,174 z" fill="#294270"/>
    <path d="M588,138 C584.686,138 582,135.314 582,132 C582,128.686 584.686,126 588,126 C591.314,126 594,128.686 594,132 C594,135.314 591.314,138 588,138 z" fill="#294270"/>
    <path d="M540.5,126.5 L540.5,174.5" fill-opacity="0" stroke="#65A1CF" stroke-width="2"/>
    <path d="M552,138 C548.686,138 546,135.314 546,132 C546,128.686 548.686,126 552,126 C555.314,126 558,128.686 558,132 C558,135.314 555.314,138 552,138 z" fill="#294270"/>
    <g>
      <path d="M640.5,120.5 L740.5,120.5 C746.023,120.5 750.5,124.977 750.5,130.5 L750.5,170.5 C750.5,176.023 746.023,180.5 740.5,180.5 L640.5,180.5 C634.977,180.5 630.5,176.023 630.5,170.5 L630.5,130.5 C630.5,124.977 634.977,120.5 640.5,120.5 z" fill="#8FC7ED"/>
      <path d="M640.5,120.5 L740.5,120.5 C746.023,120.5 750.5,124.977 750.5,130.5 L750.5,170.5 C750.5,176.023 746.023,180.5 740.5,180.5 L640.5,180.5 C634.977,180.5 630.5,176.023 630.5,170.5 L630.5,130.5 C630.5,124.977 634.977,120.5 640.5,120.5 z" fill-opacity="0" stroke="#294270" stroke-width="2"/>
    </g>
    <path d="M660,156 C656.686,156 654,153.314 654,150 C654,146.686 656.686,144 660,144 C663.314,144 666,146.686 666,150 C666,153.314 663.314,156 660,156 z" fill="#294270"/>
    <path d="M738,174 C734.686,174 732,171.314 732,168 C732,164.686 734.686,162 738,162 C741.314,162 744,164.686 744,168 C744,171.314 741.314,174 738,174 z" fill="#294270"/>
    <path d="M720,156 C716.686,156 714,153.314 714,150 C714,146.686 716.686,144 720,144 C723.314,144 726,146.686 726,150 C726,153.314 723.314,156 720,156 z" fill="#294270"/>
    <path d="M702,174 C698.686,174 696,171.314 696,168 C696,164.686 698.686,162 702,162 C705.314,162 708,164.686 708,168 C708,171.314 705.314,174 702,174 z" fill="#294270"/>
    <path d="M738,138 C734.686,138 732,135.314 732,132 C732,128.686 734.686,126 738,126 C741.314,126 744,128.686 744,132 C744,135.314 741.314,138 738,138 z" fill="#294270"/>
    <path d="M690.5,126.5 L690.5,174.5" fill-opacity="0" stroke="#65A1CF" stroke-width="2"/>
    <path d="M702,138 C698.686,138 696,135.314 696,132 C696,128.686 698.686,126 702,126 C705.314,126 708,128.686 708,132 C708,135.314 705.314,138 702,138 z" fill="#294270"/>
    <g>
      <path d="M790.5,120.5 L890.5,120.5 C896.023,120.5 900.5,124.977 900.5,130.5 L900.5,170.5 C900.5,176.023 896.023,180.5 890.5,180.5 L790.5,180.5 C784.977,180.5 780.5,176.023 780.5,170.5 L780.5,130.5 C780.5,124.977 784.977,120.5 790.5,120.5 z" fill="#8FC7ED"/>
      <path d="M790.5,120.5 L890.5,120.5 C896.023,120.5 900.5,124.977 900.5,130.5 L900.5,170.5 C900.5,176.023 896.023,180.5 890.5,180.5 L790.5,180.5 C784.977,180.5 780.5,176.023 780.5,170.5 L780.5,130.5 C780.5,124.977 784.977,120.5 790.5,120.5 z" fill-opacity="0" stroke="#294270" stroke-width="2"/>
    </g>
    <path d="M870,138 C866.686,138 864,135.314 864,132 C864,128.686 866.686,126 870,126 C873.314,126 876,128.686 876,132 C876,135.314 873.314,138 870,138 z" fill="#294270"/>
    <path d="M810,156 C806.686,156 804,153.314 804,150 C804,146.686 806.686,144 810,144 C813.314,144 816,146.686 816,150 C816,153.314 813.314,156 810,156 z" fill="#294270"/>
    <path d="M888,174 C884.686,174 882,171.314 882,168 C882,164.686 884.686,162 888,162 C891.314,162 894,164.686 894,168 C894,171.314 891.314,174 888,174 z" fill="#294270"/>
    <path d="M870,174 C866.686,174 864,171.314 864,168 C864,164.686 866.686,162 870,162 C873.314,162 876,164.686 876,168 C876,171.314 873.314,174 870,174 z" fill="#294270"/>
    <path d="M852,174 C848.686,174 846,171.314 846,168 C846,164.686 848.686,162 852,162 C855.314,162 858,164.686 858,168 C858,171.314 855.314,174 852,174 z" fill="#294270"/>
    <path d="M888,138 C884.686,138 882,135.314 882,132 C882,128.686 884.686,126 888,126 C891.314,126 894,128.686 894,132 C894,135.314 891.314,138 888,138 z" fill="#294270"/>
    <path d="M840.5,126.5 L840.5,174.5" fill-opacity="0" stroke="#65A1CF" stroke-width="2"/>
    <path d="M852,138 C848.686,138 846,135.314 846,132 C846,128.686 848.686,126 852,126 C855.314,126 858,128.686 858,132 C858,135.314 855.314,138 852,138 z" fill="#294270"/>
    <g>
      <path d="M40.5,210.5 L140.5,210.5 C146.023,210.5 150.5,214.977 150.5,220.5 L150.5,260.5 C150.5,266.023 146.023,270.5 140.5,270.5 L40.5,270.5 C34.977,270.5 30.5,266.023 30.5,260.5 L30.5,220.5 C30.5,214.977 34.977,210.5 40.5,210.5 z" fill="#8FC7ED"/>
      <path d="M40.5,210.5 L140.5,210.5 C146.023,210.5 150.5,214.977 150.5,220.5 L150.5,260.5 C150.5,266.023 146.023,270.5 140.5,270.5 L40.5,270.5 C34.977,270.5 30.5,266.023 30.5,260.5 L30.5,220.5 C30.5,214.977 34.977,210.5 40.5,210.5 z" fill-opacity="0" stroke="#294270" stroke-width="2"/>
    </g>
    <path d="M102,264 C98.686,264 96,261.314 96,258 C96,254.686 98.686,252 102,252 C105.314,252 108,254.686 108,258 C108,261.314 105.314,264 102,264 z" fill="#294270"/>
    <path d="M138,228 C134.686,228 132,225.314 132,222 C132,218.686 134.686,216 138,216 C141.314,216 144,218.686 144,222 C144,225.314 141.314,228 138,228 z" fill="#294270"/>
    <path d="M90.5,216.5 L90.5,264.5" fill-opacity="0" stroke="#65A1CF" stroke-width="2"/>
    <g>
      <path d="M190.5,210.5 L290.5,210.5 C296.023,210.5 300.5,214.977 300.5,220.5 L300.5,260.5 C300.5,266.023 296.023,270.5 290.5,270.5 L190.5,270.5 C184.977,270.5 180.5,266.023 180.5,260.5 L180.5,220.5 C180.5,214.977 184.977,210.5 190.5,210.5 z" fill="#8FC7ED"/>
      <path d="M190.5,210.5 L290.5,210.5 C296.023,210.5 300.5,214.977 300.5,220.5 L300.5,260.5 C300.5,266.023 296.023,270.5 290.5,270.5 L190.5,270.5 C184.977,270.5 180.5,266.023 180.5,260.5 L180.5,220.5 C180.5,214.977 184.977,210.5 190.5,210.5 z" fill-opacity="0" stroke="#294270" stroke-width="2"/>
    </g>
    <path d="M252,264 C248.686,264 246,261.314 246,258 C246,254.686 248.686,252 252,252 C255.314,252 258,254.686 258,258 C258,261.314 255.314,264 252,264 z" fill="#294270"/>
    <path d="M288,228 C284.686,228 282,225.314 282,222 C282,218.686 284.686,216 288,216 C291.314,216 294,218.686 294,222 C294,225.314 291.314,228 288,228 z" fill="#294270"/>
    <path d="M240.5,216.5 L240.5,264.5" fill-opacity="0" stroke="#65A1CF" stroke-width="2"/>
    <path d="M270,246 C266.686,246 264,243.314 264,240 C264,236.686 266.686,234 270,234 C273.314,234 276,236.686 276,240 C276,243.314 273.314,246 270,246 z" fill="#294270"/>
    <g>
      <path d="M340.5,210.5 L440.5,210.5 C446.023,210.5 450.5,214.977 450.5,220.5 L450.5,260.5 C450.5,266.023 446.023,270.5 440.5,270.5 L340.5,270.5 C334.977,270.5 330.5,266.023 330.5,260.5 L330.5,220.5 C330.5,214.977 334.977,210.5 340.5,210.5 z" fill="#8FC7ED"/>
      <path d="M340.5,210.5 L440.5,210.5 C446.023,210.5 450.5,214.977 450.5,220.5 L450.5,260.5 C450.5,266.023 446.023,270.5 440.5,270.5 L340.5,270.5 C334.977,270.5 330.5,266.023 330.5,260.5 L330.5,220.5 C330.5,214.977 334.977,210.5 340.5,210.5 z" fill-opacity="0" stroke="#294270" stroke-width="2"/>
    </g>
    <path d="M438,264 C434.686,264 432,261.314 432,258 C432,254.686 434.686,252 438,252 C441.314,252 444,254.686 444,258 C444,261.314 441.314,264 438,264 z" fill="#294270"/>
    <path d="M402,264 C398.686,264 396,261.314 396,258 C396,254.686 398.686,252 402,252 C405.314,252 408,254.686 408,258 C408,261.314 405.314,264 402,264 z" fill="#294270"/>
    <path d="M438,228 C434.686,228 432,225.314 432,222 C432,218.686 434.686,216 438,216 C441.314,216 444,218.686 444,222 C444,225.314 441.314,228 438,228 z" fill="#294270"/>
    <path d="M390.5,216.5 L390.5,264.5" fill-opacity="0" stroke="#65A1CF" stroke-width="2"/>
    <path d="M402,228 C398.686,228 396,225.314 396,222 C396,218.686 398.686,216 402,216 C405.314,216 408,218.686 408,222 C408,225.314 405.314,228 402,228 z" fill="#294270"/>
    <g>
      <path d="M490.5,210.5 L590.5,210.5 C596.023,210.5 600.5,214.977 600.5,220.5 L600.5,260.5 C600.5,266.023 596.023,270.5 590.5,270.5 L490.5,270.5 C484.977,270.5 480.5,266.023 480.5,260.5 L480.5,220.5 C480.5,214.977 484.977,210.5 490.5,210.5 z" fill="#8FC7ED"/>
      <path d="M490.5,210.5 L590.5,210.5 C596.023,210.5 600.5,214.977 600.5,220.5 L600.5,260.5 C600.5,266.023 596.023,270.5 590.5,270.5 L490.5,270.5 C484.977,270.5 480.5,266.023 480.5,260.5 L480.5,220.5 C480.5,214.977 484.977,210.5 490.5,210.5 z" fill-opacity="0" stroke="#294270" stroke-width="2"/>
    </g>
    <path d="M588,264 C584.686,264 582,261.314 582,258 C582,254.686 584.686,252 588,252 C591.314,252 594,254.686 594,258 C594,261.314 591.314,264 588,264 z" fill="#294270"/>
    <path d="M570,246 C566.686,246 564,243.314 564,240 C564,236.686 566.686,234 570,234 C573.314,234 576,236.686 576,240 C576,243.314 573.314,246 570,246 z" fill="#294270"/>
    <path d="M552,264 C548.686,264 546,261.314 546,258 C546,254.686 548.686,252 552,252 C555.314,252 558,254.686 558,258 C558,261.314 555.314,264 552,264 z" fill="#294270"/>
    <path d="M588,228 C584.686,228 582,225.314 582,222 C582,218.686 584.686,216 588,216 C591.314,216 594,218.686 594,222 C594,225.314 591.314,228 588,228 z" fill="#294270"/>
    <path d="M540.5,216.5 L540.5,264.5" fill-opacity="0" stroke="#65A1CF" stroke-width="2"/>
    <path d="M552,228 C548.686,228 546,225.314 546,222 C546,218.686 548.686,216 552,216 C555.314,216 558,218.686 558,222 C558,225.314 555.314,228 552,228 z" fill="#294270"/>
    <g>
      <path d="M640.5,210.5 L740.5,210.5 C746.023,210.5 750.5,214.977 750.5,220.5 L750.5,260.5 C750.5,266.023 746.023,270.5 740.5,270.5 L640.5,270.5 C634.977,270.5 630.5,266.023 630.5,260.5 L630.5,220.5 C630.5,214.977 634.977,210.5 640.5,210.5 z" fill="#8FC7ED"/>
      <path d="M640.5,210.5 L740.5,210.5 C746.023,210.5 750.5,214.977 750.5,220.5 L750.5,260.5 C750.5,266.023 746.023,270.5 740.5,270.5 L640.5,270.5 C634.977,270.5 630.5,266.023 630.5,260.5 L630.5,220.5 C630.5,214.977 634.977,210.5 640.5,210.5 z" fill-opacity="0" stroke="#294270" stroke-width="2"/>
    </g>
    <path d="M720,228 C716.686,228 714,225.314 714,222 C714,218.686 716.686,216 720,216 C723.314,216 726,218.686 726,222 C726,225.314 723.314,228 720,228 z" fill="#294270"/>
    <path d="M738,264 C734.686,264 732,261.314 732,258 C732,254.686 734.686,252 738,252 C741.314,252 744,254.686 744,258 C744,261.314 741.314,264 738,264 z" fill="#294270"/>
    <path d="M720,264 C716.686,264 714,261.314 714,258 C714,254.686 716.686,252 720,252 C723.314,252 726,254.686 726,258 C726,261.314 723.314,264 720,264 z" fill="#294270"/>
    <path d="M702,264 C698.686,264 696,261.314 696,258 C696,254.686 698.686,252 702,252 C705.314,252 708,254.686 708,258 C708,261.314 705.314,264 702,264 z" fill="#294270"/>
    <path d="M738,228 C734.686,228 732,225.314 732,222 C732,218.686 734.686,216 738,216 C741.314,216 744,218.686 744,222 C744,225.314 741.314,228 738,228 z" fill="#294270"/>
    <path d="M690.5,216.5 L690.5,264.5" fill-opacity="0" stroke="#65A1CF" stroke-width="2"/>
    <path d="M702,228 C698.686,228 696,225.314 696,222 C696,218.686 698.686,216 702,216 C705.314,216 708,218.686 708,222 C708,225.314 705.314,228 702,228 z" fill="#294270"/>
    <path d="M42,264 C38.686,264 36,261.314 36,258 C36,254.686 38.686,252 42,252 C45.314,252 48,254.686 48,258 C48,261.314 45.314,264 42,264 z" fill="#294270"/>
    <path d="M78,228 C74.686,228 72,225.314 72,222 C72,218.686 74.686,216 78,216 C81.314,216 84,218.686 84,222 C84,225.314 81.314,228 78,228 z" fill="#294270"/>
    <path d="M192,264 C188.686,264 186,261.314 186,258 C186,254.686 188.686,252 192,252 C195.314,252 198,254.686 198,258 C198,261.314 195.314,264 192,264 z" fill="#294270"/>
    <path d="M228,228 C224.686,228 222,225.314 222,222 C222,218.686 224.686,216 228,216 C231.314,216 234,218.686 234,222 C234,225.314 231.314,228 228,228 z" fill="#294270"/>
    <path d="M342,264 C338.686,264 336,261.314 336,258 C336,254.686 338.686,252 342,252 C345.314,252 348,254.686 348,258 C348,261.314 345.314,264 342,264 z" fill="#294270"/>
    <path d="M378,228 C374.686,228 372,225.314 372,222 C372,218.686 374.686,216 378,216 C381.314,216 384,218.686 384,222 C384,225.314 381.314,228 378,228 z" fill="#294270"/>
    <path d="M492,264 C488.686,264 486,261.314 486,258 C486,254.686 488.686,252 492,252 C495.314,252 498,254.686 498,258 C498,261.314 495.314,264 492,264 z" fill="#294270"/>
    <path d="M528,228 C524.686,228 522,225.314 522,222 C522,218.686 524.686,216 528,216 C531.314,216 534,218.686 534,222 C534,225.314 531.314,228 528,228 z" fill="#294270"/>
    <path d="M642,264 C638.686,264 636,261.314 636,258 C636,254.686 638.686,252 642,252 C645.314,252 648,254.686 648,258 C648,261.314 645.314,264 642,264 z" fill="#294270"/>
    <path d="M678,228 C674.686,228 672,225.314 672,222 C672,218.686 674.686,216 678,216 C681.314,216 684,218.686 684,222 C684,225.314 681.314,228 678,228 z" fill="#294270"/>
    <g>
      <path d="M490.5,300.5 L590.5,300.5 C596.023,300.5 600.5,304.977 600.5,310.5 L600.5,350.5 C600.5,356.023 596.023,360.5 590.5,360.5 L490.5,360.5 C484.977,360.5 480.5,356.023 480.5,350.5 L480.5,310.5 C480.5,304.977 484.977,300.5 490.5,300.5 z" fill="#8FC7ED"/>
      <path d="M490.5,300.5 L590.5,300.5 C596.023,300.5 600.5,304.977 600.5,310.5 L600.5,350.5 C600.5,356.023 596.023,360.5 590.5,360.5 L490.5,360.5 C484.977,360.5 480.5,356.023 480.5,350.5 L480.5,310.5 C480.5,304.977 484.977,300.5 490.5,300.5 z" fill-opacity="0" stroke="#294270" stroke-width="2"/>
    </g>
    <path d="M570,318 C566.686,318 564,315.314 564,312 C564,308.686 566.686,306 570,306 C573.314,306 576,308.686 576,312 C576,315.314 573.314,318 570,318 z" fill="#294270"/>
    <path d="M552,318 C548.686,318 546,315.314 546,312 C546,308.686 548.686,306 552,306 C555.314,306 558,308.686 558,312 C558,315.314 555.314,318 552,318 z" fill="#294270"/>
    <path d="M588,354 C584.686,354 582,351.314 582,348 C582,344.686 584.686,342 588,342 C591.314,342 594,344.686 594,348 C594,351.314 591.314,354 588,354 z" fill="#294270"/>
    <path d="M570,354 C566.686,354 564,351.314 564,348 C564,344.686 566.686,342 570,342 C573.314,342 576,344.686 576,348 C576,351.314 573.314,354 570,354 z" fill="#294270"/>
    <path d="M552,354 C548.686,354 546,351.314 546,348 C546,344.686 548.686,342 552,342 C555.314,342 558,344.686 558,348 C558,351.314 555.314,354 552,354 z" fill="#294270"/>
    <path d="M588,318 C584.686,318 582,315.314 582,312 C582,308.686 584.686,306 588,306 C591.314,306 594,308.686 594,312 C594,315.314 591.314,318 588,318 z" fill="#294270"/>
    <path d="M540.5,306.5 L540.5,354.5" fill-opacity="0" stroke="#65A1CF" stroke-width="2"/>
    <g>
      <path d="M40.5,300.5 L140.5,300.5 C146.023,300.5 150.5,304.977 150.5,310.5 L150.5,350.5 C150.5,356.023 146.023,360.5 140.5,360.5 L40.5,360.5 C34.977,360.5 30.5,356.023 30.5,350.5 L30.5,310.5 C30.5,304.977 34.977,300.5 40.5,300.5 z" fill="#8FC7ED"/>
      <path d="M40.5,300.5 L140.5,300.5 C146.023,300.5 150.5,304.977 150.5,310.5 L150.5,350.5 C150.5,356.023 146.023,360.5 140.5,360.5 L40.5,360.5 C34.977,360.5 30.5,356.023 30.5,350.5 L30.5,310.5 C30.5,304.977 34.977,300.5 40.5,300.5 z" fill-opacity="0" stroke="#294270" stroke-width="2"/>
    </g>
    <path d="M120,336 C116.686,336 114,333.314 114,330 C114,326.686 116.686,324 120,324 C123.314,324 126,326.686 126,330 C126,333.314 123.314,336 120,336 z" fill="#294270"/>
    <path d="M102,354 C98.686,354 96,351.314 96,348 C96,344.686 98.686,342 102,342 C105.314,342 108,344.686 108,348 C108,351.314 105.314,354 102,354 z" fill="#294270"/>
    <path d="M138,318 C134.686,318 132,315.314 132,312 C132,308.686 134.686,306 138,306 C141.314,306 144,308.686 144,312 C144,315.314 141.314,318 138,318 z" fill="#294270"/>
    <path d="M90.5,306.5 L90.5,354.5" fill-opacity="0" stroke="#65A1CF" stroke-width="2"/>
    <g>
      <path d="M190.5,300.5 L290.5,300.5 C296.023,300.5 300.5,304.977 300.5,310.5 L300.5,350.5 C300.5,356.023 296.023,360.5 290.5,360.5 L190.5,360.5 C184.977,360.5 180.5,356.023 180.5,350.5 L180.5,310.5 C180.5,304.977 184.977,300.5 190.5,300.5 z" fill="#8FC7ED"/>
      <path d="M190.5,300.5 L290.5,300.5 C296.023,300.5 300.5,304.977 300.5,310.5 L300.5,350.5 C300.5,356.023 296.023,360.5 290.5,360.5 L190.5,360.5 C184.977,360.5 180.5,356.023 180.5,350.5 L180.5,310.5 C180.5,304.977 184.977,300.5 190.5,300.5 z" fill-opacity="0" stroke="#294270" stroke-width="2"/>
    </g>
    <path d="M252,318 C248.686,318 246,315.314 246,312 C246,308.686 248.686,306 252,306 C255.314,306 258,308.686 258,312 C258,315.314 255.314,318 252,318 z" fill="#294270"/>
    <path d="M288,354 C284.686,354 282,351.314 282,348 C282,344.686 284.686,342 288,342 C291.314,342 294,344.686 294,348 C294,351.314 291.314,354 288,354 z" fill="#294270"/>
    <path d="M252,354 C248.686,354 246,351.314 246,348 C246,344.686 248.686,342 252,342 C255.314,342 258,344.686 258,348 C258,351.314 255.314,354 252,354 z" fill="#294270"/>
    <path d="M288,318 C284.686,318 282,315.314 282,312 C282,308.686 284.686,306 288,306 C291.314,306 294,308.686 294,312 C294,315.314 291.314,318 288,318 z" fill="#294270"/>
    <path d="M240.5,306.5 L240.5,354.5" fill-opacity="0" stroke="#65A1CF" stroke-width="2"/>
    <g>
      <path d="M340.5,300.5 L440.5,300.5 C446.023,300.5 450.5,304.977 450.5,310.5 L450.5,350.5 C450.5,356.023 446.023,360.5 440.5,360.5 L340.5,360.5 C334.977,360.5 330.5,356.023 330.5,350.5 L330.5,310.5 C330.5,304.977 334.977,300.5 340.5,300.5 z" fill="#8FC7ED"/>
      <path d="M340.5,300.5 L440.5,300.5 C446.023,300.5 450.5,304.977 450.5,310.5 L450.5,350.5 C450.5,356.023 446.023,360.5 440.5,360.5 L340.5,360.5 C334.977,360.5 330.5,356.023 330.5,350.5 L330.5,310.5 C330.5,304.977 334.977,300.5 340.5,300.5 z" fill-opacity="0" stroke="#294270" stroke-width="2"/>
    </g>
    <path d="M402,318 C398.686,318 396,315.314 396,312 C396,308.686 398.686,306 402,306 C405.314,306 408,308.686 408,312 C408,315.314 405.314,318 402,318 z" fill="#294270"/>
    <path d="M438,354 C434.686,354 432,351.314 432,348 C432,344.686 434.686,342 438,342 C441.314,342 444,344.686 444,348 C444,351.314 441.314,354 438,354 z" fill="#294270"/>
    <path d="M420,336 C416.686,336 414,333.314 414,330 C414,326.686 416.686,324 420,324 C423.314,324 426,326.686 426,330 C426,333.314 423.314,336 420,336 z" fill="#294270"/>
    <path d="M402,354 C398.686,354 396,351.314 396,348 C396,344.686 398.686,342 402,342 C405.314,342 408,344.686 408,348 C408,351.314 405.314,354 402,354 z" fill="#294270"/>
    <path d="M438,318 C434.686,318 432,315.314 432,312 C432,308.686 434.686,306 438,306 C441.314,306 444,308.686 444,312 C444,315.314 441.314,318 438,318 z" fill="#294270"/>
    <path d="M390.5,306.5 L390.5,354.5" fill-opacity="0" stroke="#65A1CF" stroke-width="2"/>
    <path d="M60,336 C56.686,336 54,333.314 54,330 C54,326.686 56.686,324 60,324 C63.314,324 66,326.686 66,330 C66,333.314 63.314,336 60,336 z" fill="#294270"/>
    <path d="M42,354 C38.686,354 36,351.314 36,348 C36,344.686 38.686,342 42,342 C45.314,342 48,344.686 48,348 C48,351.314 45.314,354 42,354 z" fill="#294270"/>
    <path d="M78,318 C74.686,318 72,315.314 72,312 C72,308.686 74.686,306 78,306 C81.314,306 84,308.686 84,312 C84,315.314 81.314,318 78,318 z" fill="#294270"/>
    <path d="M210,336 C206.686,336 204,333.314 204,330 C204,326.686 206.686,324 210,324 C213.314,324 216,326.686 216,330 C216,333.314 213.314,336 210,336 z" fill="#294270"/>
    <path d="M192,354 C188.686,354 186,351.314 186,348 C186,344.686 188.686,342 192,342 C195.314,342 198,344.686 198,348 C198,351.314 195.314,354 192,354 z" fill="#294270"/>
    <path d="M228,318 C224.686,318 222,315.314 222,312 C222,308.686 224.686,306 228,306 C231.314,306 234,308.686 234,312 C234,315.314 231.314,318 228,318 z" fill="#294270"/>
    <path d="M360,336 C356.686,336 354,333.314 354,330 C354,326.686 356.686,324 360,324 C363.314,324 366,326.686 366,330 C366,333.314 363.314,336 360,336 z" fill="#294270"/>
    <path d="M342,354 C338.686,354 336,351.314 336,348 C336,344.686 338.686,342 342,342 C345.314,342 348,344.686 348,348 C348,351.314 345.314,354 342,354 z" fill="#294270"/>
    <path d="M378,318 C374.686,318 372,315.314 372,312 C372,308.686 374.686,306 378,306 C381.314,306 384,308.686 384,312 C384,315.314 381.314,318 378,318 z" fill="#294270"/>
    <path d="M510,336 C506.686,336 504,333.314 504,330 C504,326.686 506.686,324 510,324 C513.314,324 516,326.686 516,330 C516,333.314 513.314,336 510,336 z" fill="#294270"/>
    <path d="M492,354 C488.686,354 486,351.314 486,348 C486,344.686 488.686,342 492,342 C495.314,342 498,344.686 498,348 C498,351.314 495.314,354 492,354 z" fill="#294270"/>
    <path d="M528,318 C524.686,318 522,315.314 522,312 C522,308.686 524.686,306 528,306 C531.314,306 534,308.686 534,312 C534,315.314 531.314,318 528,318 z" fill="#294270"/>
    <g>
      <path d="M340.5,390.5 L440.5,390.5 C446.023,390.5 450.5,394.977 450.5,400.5 L450.5,440.5 C450.5,446.023 446.023,450.5 440.5,450.5 L340.5,450.5 C334.977,450.5 330.5,446.023 330.5,440.5 L330.5,400.5 C330.5,394.977 334.977,390.5 340.5,390.5 z" fill="#8FC7ED"/>
      <path d="M340.5,390.5 L440.5,390.5 C446.023,390.5 450.5,394.977 450.5,400.5 L450.5,440.5 C450.5,446.023 446.023,450.5 440.5,450.5 L340.5,450.5 C334.977,450.5 330.5,446.023 330.5,440.5 L330.5,400.5 C330.5,394.977 334.977,390.5 340.5,390.5 z" fill-opacity="0" stroke="#294270" stroke-width="2"/>
    </g>
    <path d="M420,408 C416.686,408 414,405.314 414,402 C414,398.686 416.686,396 420,396 C423.314,396 426,398.686 426,402 C426,405.314 423.314,408 420,408 z" fill="#294270"/>
    <path d="M402,408 C398.686,408 396,405.314 396,402 C396,398.686 398.686,396 402,396 C405.314,396 408,398.686 408,402 C408,405.314 405.314,408 402,408 z" fill="#294270"/>
    <path d="M438,444 C434.686,444 432,441.314 432,438 C432,434.686 434.686,432 438,432 C441.314,432 444,434.686 444,438 C444,441.314 441.314,444 438,444 z" fill="#294270"/>
    <path d="M420,444 C416.686,444 414,441.314 414,438 C414,434.686 416.686,432 420,432 C423.314,432 426,434.686 426,438 C426,441.314 423.314,444 420,444 z" fill="#294270"/>
    <path d="M402,444 C398.686,444 396,441.314 396,438 C396,434.686 398.686,432 402,432 C405.314,432 408,434.686 408,438 C408,441.314 405.314,444 402,444 z" fill="#294270"/>
    <path d="M438,408 C434.686,408 432,405.314 432,402 C432,398.686 434.686,396 438,396 C441.314,396 444,398.686 444,402 C444,405.314 441.314,408 438,408 z" fill="#294270"/>
    <path d="M390.5,396.5 L390.5,444.5" fill-opacity="0" stroke="#65A1CF" stroke-width="2"/>
    <g>
      <path d="M40.5,390.5 L140.5,390.5 C146.023,390.5 150.5,394.977 150.5,400.5 L150.5,440.5 C150.5,446.023 146.023,450.5 140.5,450.5 L40.5,450.5 C34.977,450.5 30.5,446.023 30.5,440.5 L30.5,400.5 C30.5,394.977 34.977,390.5 40.5,390.5 z" fill="#8FC7ED"/>
      <path d="M40.5,390.5 L140.5,390.5 C146.023,390.5 150.5,394.977 150.5,400.5 L150.5,440.5 C150.5,446.023 146.023,450.5 140.5,450.5 L40.5,450.5 C34.977,450.5 30.5,446.023 30.5,440.5 L30.5,400.5 C30.5,394.977 34.977,390.5 40.5,390.5 z" fill-opacity="0" stroke="#294270" stroke-width="2"/>
    </g>
    <path d="M102,408 C98.686,408 96,405.314 96,402 C96,398.686 98.686,396 102,396 C105.314,396 108,398.686 108,402 C108,405.314 105.314,408 102,408 z" fill="#294270"/>
    <path d="M138,444 C134.686,444 132,441.314 132,438 C132,434.686 134.686,432 138,432 C141.314,432 144,434.686 144,438 C144,441.314 141.314,444 138,444 z" fill="#294270"/>
    <path d="M102,444 C98.686,444 96,441.314 96,438 C96,434.686 98.686,432 102,432 C105.314,432 108,434.686 108,438 C108,441.314 105.314,444 102,444 z" fill="#294270"/>
    <path d="M138,408 C134.686,408 132,405.314 132,402 C132,398.686 134.686,396 138,396 C141.314,396 144,398.686 144,402 C144,405.314 141.314,408 138,408 z" fill="#294270"/>
    <path d="M90.5,396.5 L90.5,444.5" fill-opacity="0" stroke="#65A1CF" stroke-width="2"/>
    <g>
      <path d="M190.5,390.5 L290.5,390.5 C296.023,390.5 300.5,394.977 300.5,400.5 L300.5,440.5 C300.5,446.023 296.023,450.5 290.5,450.5 L190.5,450.5 C184.977,450.5 180.5,446.023 180.5,440.5 L180.5,400.5 C180.5,394.977 184.977,390.5 190.5,390.5 z" fill="#8FC7ED"/>
      <path d="M190.5,390.5 L290.5,390.5 C296.023,390.5 300.5,394.977 300.5,400.5 L300.5,440.5 C300.5,446.023 296.023,450.5 290.5,450.5 L190.5,450.5 C184.977,450.5 180.5,446.023 180.5,440.5 L180.5,400.5 C180.5,394.977 184.977,390.5 190.5,390.5 z" fill-opacity="0" stroke="#294270" stroke-width="2"/>
    </g>
    <path d="M252,408 C248.686,408 246,405.314 246,402 C246,398.686 248.686,396 252,396 C255.314,396 258,398.686 258,402 C258,405.314 255.314,408 252,408 z" fill="#294270"/>
    <path d="M288,444 C284.686,444 282,441.314 282,438 C282,434.686 284.686,432 288,432 C291.314,432 294,434.686 294,438 C294,441.314 291.314,444 288,444 z" fill="#294270"/>
    <path d="M270,426 C266.686,426 264,423.314 264,420 C264,416.686 266.686,414 270,414 C273.314,414 276,416.686 276,420 C276,423.314 273.314,426 270,426 z" fill="#294270"/>
    <path d="M252,444 C248.686,444 246,441.314 246,438 C246,434.686 248.686,432 252,432 C255.314,432 258,434.686 258,438 C258,441.314 255.314,444 252,444 z" fill="#294270"/>
    <path d="M288,408 C284.686,408 282,405.314 282,402 C282,398.686 284.686,396 288,396 C291.314,396 294,398.686 294,402 C294,405.314 291.314,408 288,408 z" fill="#294270"/>
    <path d="M240.5,396.5 L240.5,444.5" fill-opacity="0" stroke="#65A1CF" stroke-width="2"/>
    <g>
      <path d="M190.5,480.5 L290.5,480.5 C296.023,480.5 300.5,484.977 300.5,490.5 L300.5,530.5 C300.5,536.023 296.023,540.5 290.5,540.5 L190.5,540.5 C184.977,540.5 180.5,536.023 180.5,530.5 L180.5,490.5 C180.5,484.977 184.977,480.5 190.5,480.5 z" fill="#8FC7ED"/>
      <path d="M190.5,480.5 L290.5,480.5 C296.023,480.5 300.5,484.977 300.5,490.5 L300.5,530.5 C300.5,536.023 296.023,540.5 290.5,540.5 L190.5,540.5 C184.977,540.5 180.5,536.023 180.5,530.5 L180.5,490.5 C180.5,484.977 184.977,480.5 190.5,480.5 z" fill-opacity="0" stroke="#294270" stroke-width="2"/>
    </g>
    <path d="M270,498 C266.686,498 264,495.314 264,492 C264,488.686 266.686,486 270,486 C273.314,486 276,488.686 276,492 C276,495.314 273.314,498 270,498 z" fill="#294270"/>
    <path d="M252,498 C248.686,498 246,495.314 246,492 C246,488.686 248.686,486 252,486 C255.314,486 258,488.686 258,492 C258,495.314 255.314,498 252,498 z" fill="#294270"/>
    <path d="M288,534 C284.686,534 282,531.314 282,528 C282,524.686 284.686,522 288,522 C291.314,522 294,524.686 294,528 C294,531.314 291.314,534 288,534 z" fill="#294270"/>
    <path d="M270,534 C266.686,534 264,531.314 264,528 C264,524.686 266.686,522 270,522 C273.314,522 276,524.686 276,528 C276,531.314 273.314,534 270,534 z" fill="#294270"/>
    <path d="M252,534 C248.686,534 246,531.314 246,528 C246,524.686 248.686,522 252,522 C255.314,522 258,524.686 258,528 C258,531.314 255.314,534 252,534 z" fill="#294270"/>
    <path d="M288,498 C284.686,498 282,495.314 282,492 C282,488.686 284.686,486 288,486 C291.314,486 294,488.686 294,492 C294,495.314 291.314,498 288,498 z" fill="#294270"/>
    <path d="M240.5,486.5 L240.5,534.5" fill-opacity="0" stroke="#65A1CF" stroke-width="2"/>
    <g>
      <path d="M40.5,480.5 L140.5,480.5 C146.023,480.5 150.5,484.977 150.5,490.5 L150.5,530.5 C150.5,536.023 146.023,540.5 140.5,540.5 L40.5,540.5 C34.977,540.5 30.5,536.023 30.5,530.5 L30.5,490.5 C30.5,484.977 34.977,480.5 40.5,480.5 z" fill="#8FC7ED"/>
      <path d="M40.5,480.5 L140.5,480.5 C146.023,480.5 150.5,484.977 150.5,490.5 L150.5,530.5 C150.5,536.023 146.023,540.5 140.5,540.5 L40.5,540.5 C34.977,540.5 30.5,536.023 30.5,530.5 L30.5,490.5 C30.5,484.977 34.977,480.5 40.5,480.5 z" fill-opacity="0" stroke="#294270" stroke-width="2"/>
    </g>
    <path d="M102,498 C98.686,498 96,495.314 96,492 C96,488.686 98.686,486 102,486 C105.314,486 108,488.686 108,492 C108,495.314 105.314,498 102,498 z" fill="#294270"/>
    <path d="M138,534 C134.686,534 132,531.314 132,528 C132,524.686 134.686,522 138,522 C141.314,522 144,524.686 144,528 C144,531.314 141.314,534 138,534 z" fill="#294270"/>
    <path d="M120,516 C116.686,516 114,513.314 114,510 C114,506.686 116.686,504 120,504 C123.314,504 126,506.686 126,510 C126,513.314 123.314,516 120,516 z" fill="#294270"/>
    <path d="M102,534 C98.686,534 96,531.314 96,528 C96,524.686 98.686,522 102,522 C105.314,522 108,524.686 108,528 C108,531.314 105.314,534 102,534 z" fill="#294270"/>
    <path d="M138,498 C134.686,498 132,495.314 132,492 C132,488.686 134.686,486 138,486 C141.314,486 144,488.686 144,492 C144,495.314 141.314,498 138,498 z" fill="#294270"/>
    <path d="M90.5,486.5 L90.5,534.5" fill-opacity="0" stroke="#65A1CF" stroke-width="2"/>
    <g>
      <path d="M40.5,570.5 L140.5,570.5 C146.023,570.5 150.5,574.977 150.5,580.5 L150.5,620.5 C150.5,626.023 146.023,630.5 140.5,630.5 L40.5,630.5 C34.977,630.5 30.5,626.023 30.5,620.5 L30.5,580.5 C30.5,574.977 34.977,570.5 40.5,570.5 z" fill="#8FC7ED"/>
      <path d="M40.5,570.5 L140.5,570.5 C146.023,570.5 150.5,574.977 150.5,580.5 L150.5,620.5 C150.5,626.023 146.023,630.5 140.5,630.5 L40.5,630.5 C34.977,630.5 30.5,626.023 30.5,620.5 L30.5,580.5 C30.5,574.977 34.977,570.5 40.5,570.5 z" fill-opacity="0" stroke="#294270" stroke-width="2"/>
    </g>
    <path d="M120,588 C116.686,588 114,585.314 114,582 C114,578.686 116.686,576 120,576 C123.314,576 126,578.686 126,582 C126,585.314 123.314,588 120,588 z" fill="#294270"/>
    <path d="M102,588 C98.686,588 96,585.314 96,582 C96,578.686 98.686,576 102,576 C105.314,576 108,578.686 108,582 C108,585.314 105.314,588 102,588 z" fill="#294270"/>
    <path d="M138,624 C134.686,624 132,621.314 132,618 C132,614.686 134.686,612 138,612 C141.314,612 144,614.686 144,618 C144,621.314 141.314,624 138,624 z" fill="#294270"/>
    <path d="M120,624 C116.686,624 114,621.314 114,618 C114,614.686 116.686,612 120,612 C123.314,612 126,614.686 126,618 C126,621.314 123.314,624 120,624 z" fill="#294270"/>
    <path d="M102,624 C98.686,624 96,621.314 96,618 C96,614.686 98.686,612 102,612 C105.314,612 108,614.686 108,618 C108,621.314 105.314,624 102,624 z" fill="#294270"/>
    <path d="M138,588 C134.686,588 132,585.314 132,582 C132,578.686 134.686,576 138,576 C141.314,576 144,578.686 144,582 C144,585.314 141.314,588 138,588 z" fill="#294270"/>
    <path d="M90.5,576.5 L90.5,624.5" fill-opacity="0" stroke="#65A1CF" stroke-width="2"/>
    <path d="M60,588 C56.686,588 54,585.314 54,582 C54,578.686 56.686,576 60,576 C63.314,576 66,578.686 66,582 C66,585.314 63.314,588 60,588 z" fill="#294270"/>
    <path d="M42,588 C38.686,588 36,585.314 36,582 C36,578.686 38.686,576 42,576 C45.314,576 48,578.686 48,582 C48,585.314 45.314,588 42,588 z" fill="#294270"/>
    <path d="M78,624 C74.686,624 72,621.314 72,618 C72,614.686 74.686,612 78,612 C81.314,612 84,614.686 84,618 C84,621.314 81.314,624 78,624 z" fill="#294270"/>
    <path d="M60,624 C56.686,624 54,621.314 54,618 C54,614.686 56.686,612 60,612 C63.314,612 66,614.686 66,618 C66,621.314 63.314,624 60,624 z" fill="#294270"/>
    <path d="M42,624 C38.686,624 36,621.314 36,618 C36,614.686 38.686,612 42,612 C45.314,612 48,614.686 48,618 C48,621.314 45.314,624 42,624 z" fill="#294270"/>
    <path d="M78,588 C74.686,588 72,585.314 72,582 C72,578.686 74.686,576 78,576 C81.314,576 84,578.686 84,582 C84,585.314 81.314,588 78,588 z" fill="#294270"/>
    <path d="M42,498 C38.686,498 36,495.314 36,492 C36,488.686 38.686,486 42,486 C45.314,486 48,488.686 48,492 C48,495.314 45.314,498 42,498 z" fill="#294270"/>
    <path d="M78,534 C74.686,534 72,531.314 72,528 C72,524.686 74.686,522 78,522 C81.314,522 84,524.686 84,528 C84,531.314 81.314,534 78,534 z" fill="#294270"/>
    <path d="M60,516 C56.686,516 54,513.314 54,510 C54,506.686 56.686,504 60,504 C63.314,504 66,506.686 66,510 C66,513.314 63.314,516 60,516 z" fill="#294270"/>
    <path d="M42,534 C38.686,534 36,531.314 36,528 C36,524.686 38.686,522 42,522 C45.314,522 48,524.686 48,528 C48,531.314 45.314,534 42,534 z" fill="#294270"/>
    <path d="M78,498 C74.686,498 72,495.314 72,492 C72,488.686 74.686,486 78,486 C81.314,486 84,488.686 84,492 C84,495.314 81.314,498 78,498 z" fill="#294270"/>
    <path d="M192,498 C188.686,498 186,495.314 186,492 C186,488.686 188.686,486 192,486 C195.314,486 198,488.686 198,492 C198,495.314 195.314,498 192,498 z" fill="#294270"/>
    <path d="M228,534 C224.686,534 222,531.314 222,528 C222,524.686 224.686,522 228,522 C231.314,522 234,524.686 234,528 C234,531.314 231.314,534 228,534 z" fill="#294270"/>
    <path d="M210,516 C206.686,516 204,513.314 204,510 C204,506.686 206.686,504 210,504 C213.314,504 216,506.686 216,510 C216,513.314 213.314,516 210,516 z" fill="#294270"/>
    <path d="M192,534 C188.686,534 186,531.314 186,528 C186,524.686 188.686,522 192,522 C195.314,522 198,524.686 198,528 C198,531.314 195.314,534 192,534 z" fill="#294270"/>
    <path d="M228,498 C224.686,498 222,495.314 222,492 C222,488.686 224.686,486 228,486 C231.314,486 234,488.686 234,492 C234,495.314 231.314,498 228,498 z" fill="#294270"/>
    <path d="M42,408 C38.686,408 36,405.314 36,402 C36,398.686 38.686,396 42,396 C45.314,396 48,398.686 48,402 C48,405.314 45.314,408 42,408 z" fill="#294270"/>
    <path d="M78,444 C74.686,444 72,441.314 72,438 C72,434.686 74.686,432 78,432 C81.314,432 84,434.686 84,438 C84,441.314 81.314,444 78,444 z" fill="#294270"/>
    <path d="M42,444 C38.686,444 36,441.314 36,438 C36,434.686 38.686,432 42,432 C45.314,432 48,434.686 48,438 C48,441.314 45.314,444 42,444 z" fill="#294270"/>
    <path d="M78,408 C74.686,408 72,405.314 72,402 C72,398.686 74.686,396 78,396 C81.314,396 84,398.686 84,402 C84,405.314 81.314,408 78,408 z" fill="#294270"/>
    <path d="M192,408 C188.686,408 186,405.314 186,402 C186,398.686 188.686,396 192,396 C195.314,396 198,398.686 198,402 C198,405.314 195.314,408 192,408 z" fill="#294270"/>
    <path d="M228,444 C224.686,444 222,441.314 222,438 C222,434.686 224.686,432 228,432 C231.314,432 234,434.686 234,438 C234,441.314 231.314,444 228,444 z" fill="#294270"/>
    <path d="M192,444 C188.686,444 186,441.314 186,438 C186,434.686 188.686,432 192,432 C195.314,432 198,434.686 198,438 C198,441.314 195.314,444 192,444 z" fill="#294270"/>
    <path d="M228,408 C224.686,408 222,405.314 222,402 C222,398.686 224.686,396 228,396 C231.314,396 234,398.686 234,402 C234,405.314 231.314,408 228,408 z" fill="#294270"/>
    <path d="M342,408 C338.686,408 336,405.314 336,402 C336,398.686 338.686,396 342,396 C345.314,396 348,398.686 348,402 C348,405.314 345.314,408 342,408 z" fill="#294270"/>
    <path d="M378,444 C374.686,444 372,441.314 372,438 C372,434.686 374.686,432 378,432 C381.314,432 384,434.686 384,438 C384,441.314 381.314,444 378,444 z" fill="#294270"/>
    <path d="M342,444 C338.686,444 336,441.314 336,438 C336,434.686 338.686,432 342,432 C345.314,432 348,434.686 348,438 C348,441.314 345.314,444 342,444 z" fill="#294270"/>
    <path d="M378,408 C374.686,408 372,405.314 372,402 C372,398.686 374.686,396 378,396 C381.314,396 384,398.686 384,402 C384,405.314 381.314,408 378,408 z" fill="#294270"/>
  </g>
  <defs/>
</svg>
