<?xml version="1.0" encoding="UTF-8"?>
<!DOCTYPE svg PUBLIC "-//W3C//DTD SVG 1.1//EN" "http://www.w3.org/Graphics/SVG/1.1/DTD/svg11.dtd">
<svg version="1.1" xmlns="http://www.w3.org/2000/svg" xmlns:xlink="http://www.w3.org/1999/xlink" x="0px" y="0px" width="400" height="400" viewBox="0, 0, 400, 400">
  <g id="Background">
    <rect x="0" y="0" width="400" height="400" fill="#000000" fill-opacity="0"/>
  </g>
  <g id="Layer 1">
    <g>
      <path d="M107.5,190.25 L107.5,90.25 C107.5,84.727 111.977,80.25 117.5,80.25 L157.5,80.25 C163.023,80.25 167.5,84.727 167.5,90.25 L167.5,190.25 C167.5,195.773 163.023,200.25 157.5,200.25 L117.5,200.25 C111.977,200.25 107.5,195.773 107.5,190.25 z" fill="#8FC7ED"/>
      <path d="M107.5,190.25 L107.5,90.25 C107.5,84.727 111.977,80.25 117.5,80.25 L157.5,80.25 C163.023,80.25 167.5,84.727 167.5,90.25 L167.5,190.25 C167.5,195.773 163.023,200.25 157.5,200.25 L117.5,200.25 C111.977,200.25 107.5,195.773 107.5,190.25 z" fill-opacity="0" stroke="#294270" stroke-width="2"/>
    </g>
    <path d="M113.5,140.25 L161.5,140.25" fill-opacity="0" stroke="#65A1CF" stroke-width="2"/>
    <g>
      <path d="M167.5,190.25 L167.5,90.25 C167.5,84.727 171.977,80.25 177.5,80.25 L217.5,80.25 C223.023,80.25 227.5,84.727 227.5,90.25 L227.5,190.25 C227.5,195.773 223.023,200.25 217.5,200.25 L177.5,200.25 C171.977,200.25 167.5,195.773 167.5,190.25 z" fill="#8FC7ED"/>
      <path d="M167.5,190.25 L167.5,90.25 C167.5,84.727 171.977,80.25 177.5,80.25 L217.5,80.25 C223.023,80.25 227.5,84.727 227.5,90.25 L227.5,190.25 C227.5,195.773 223.023,200.25 217.5,200.25 L177.5,200.25 C171.977,200.25 167.5,195.773 167.5,190.25 z" fill-opacity="0" stroke="#294270" stroke-width="2"/>
    </g>
    <path d="M173.5,140.25 L221.5,140.25" fill-opacity="0" stroke="#65A1CF" stroke-width="2"/>
    <path d="M185,187.75 C185,191.064 182.314,193.75 179,193.75 C175.686,193.75 173,191.064 173,187.75 C173,184.436 175.686,181.75 179,181.75 C182.314,181.75 185,184.436 185,187.75 z" fill="#294270"/>
    <path d="M221,151.75 C221,155.064 218.314,157.75 215,157.75 C211.686,157.75 209,155.064 209,151.75 C209,148.436 211.686,145.75 215,145.75 C218.314,145.75 221,148.436 221,151.75 z" fill="#294270"/>
    <path d="M221,187.75 C221,191.064 218.314,193.75 215,193.75 C211.686,193.75 209,191.064 209,187.75 C209,184.436 211.686,181.75 215,181.75 C218.314,181.75 221,184.436 221,187.75 z" fill="#294270"/>
    <path d="M185,151.75 C185,155.064 182.314,157.75 179,157.75 C175.686,157.75 173,155.064 173,151.75 C173,148.436 175.686,145.75 179,145.75 C182.314,145.75 185,148.436 185,151.75 z" fill="#294270"/>
    <g>
      <path d="M227.5,190.25 L227.5,90.25 C227.5,84.727 231.977,80.25 237.5,80.25 L277.5,80.25 C283.023,80.25 287.5,84.727 287.5,90.25 L287.5,190.25 C287.5,195.773 283.023,200.25 277.5,200.25 L237.5,200.25 C231.977,200.25 227.5,195.773 227.5,190.25 z" fill="#8FC7ED"/>
      <path d="M227.5,190.25 L227.5,90.25 C227.5,84.727 231.977,80.25 237.5,80.25 L277.5,80.25 C283.023,80.25 287.5,84.727 287.5,90.25 L287.5,190.25 C287.5,195.773 283.023,200.25 277.5,200.25 L237.5,200.25 C231.977,200.25 227.5,195.773 227.5,190.25 z" fill-opacity="0" stroke="#294270" stroke-width="2"/>
    </g>
    <path d="M281,127.75 C281,131.064 278.314,133.75 275,133.75 C271.686,133.75 269,131.064 269,127.75 C269,124.436 271.686,121.75 275,121.75 C278.314,121.75 281,124.436 281,127.75 z" fill="#294270"/>
    <path d="M245,91.75 C245,95.064 242.314,97.75 239,97.75 C235.686,97.75 233,95.064 233,91.75 C233,88.436 235.686,85.75 239,85.75 C242.314,85.75 245,88.436 245,91.75 z" fill="#294270"/>
    <path d="M233.5,140.25 L281.5,140.25" fill-opacity="0" stroke="#65A1CF" stroke-width="2"/>
    <path d="M263,169.75 C263,173.064 260.314,175.75 257,175.75 C253.686,175.75 251,173.064 251,169.75 C251,166.436 253.686,163.75 257,163.75 C260.314,163.75 263,166.436 263,169.75 z" fill="#294270"/>
    <g>
      <path d="M287.5,190.25 L287.5,90.25 C287.5,84.727 291.977,80.25 297.5,80.25 L337.5,80.25 C343.023,80.25 347.5,84.727 347.5,90.25 L347.5,190.25 C347.5,195.773 343.023,200.25 337.5,200.25 L297.5,200.25 C291.977,200.25 287.5,195.773 287.5,190.25 z" fill="#8FC7ED"/>
      <path d="M287.5,190.25 L287.5,90.25 C287.5,84.727 291.977,80.25 297.5,80.25 L337.5,80.25 C343.023,80.25 347.5,84.727 347.5,90.25 L347.5,190.25 C347.5,195.773 343.023,200.25 337.5,200.25 L297.5,200.25 C291.977,200.25 287.5,195.773 287.5,190.25 z" fill-opacity="0" stroke="#294270" stroke-width="2"/>
    </g>
    <path d="M323,109.75 C323,113.064 320.314,115.75 317,115.75 C313.686,115.75 311,113.064 311,109.75 C311,106.436 313.686,103.75 317,103.75 C320.314,103.75 323,106.436 323,109.75 z" fill="#294270"/>
    <path d="M341,127.75 C341,131.064 338.314,133.75 335,133.75 C331.686,133.75 329,131.064 329,127.75 C329,124.436 331.686,121.75 335,121.75 C338.314,121.75 341,124.436 341,127.75 z" fill="#294270"/>
    <path d="M305,91.75 C305,95.064 302.314,97.75 299,97.75 C295.686,97.75 293,95.064 293,91.75 C293,88.436 295.686,85.75 299,85.75 C302.314,85.75 305,88.436 305,91.75 z" fill="#294270"/>
    <path d="M293.5,140.25 L341.5,140.25" fill-opacity="0" stroke="#65A1CF" stroke-width="2"/>
    <g>
      <path d="M107.5,310.25 L107.5,210.25 C107.5,204.727 111.977,200.25 117.5,200.25 L157.5,200.25 C163.023,200.25 167.5,204.727 167.5,210.25 L167.5,310.25 C167.5,315.773 163.023,320.25 157.5,320.25 L117.5,320.25 C111.977,320.25 107.5,315.773 107.5,310.25 z" fill="#8FC7ED"/>
      <path d="M107.5,310.25 L107.5,210.25 C107.5,204.727 111.977,200.25 117.5,200.25 L157.5,200.25 C163.023,200.25 167.5,204.727 167.5,210.25 L167.5,310.25 C167.5,315.773 163.023,320.25 157.5,320.25 L117.5,320.25 C111.977,320.25 107.5,315.773 107.5,310.25 z" fill-opacity="0" stroke="#294270" stroke-width="2"/>
    </g>
    <path d="M125,247.75 C125,251.064 122.314,253.75 119,253.75 C115.686,253.75 113,251.064 113,247.75 C113,244.436 115.686,241.75 119,241.75 C122.314,241.75 125,244.436 125,247.75 z" fill="#294270"/>
    <path d="M161,211.75 C161,215.064 158.314,217.75 155,217.75 C151.686,217.75 149,215.064 149,211.75 C149,208.436 151.686,205.75 155,205.75 C158.314,205.75 161,208.436 161,211.75 z" fill="#294270"/>
    <path d="M161,247.75 C161,251.064 158.314,253.75 155,253.75 C151.686,253.75 149,251.064 149,247.75 C149,244.436 151.686,241.75 155,241.75 C158.314,241.75 161,244.436 161,247.75 z" fill="#294270"/>
    <path d="M125,211.75 C125,215.064 122.314,217.75 119,217.75 C115.686,217.75 113,215.064 113,211.75 C113,208.436 115.686,205.75 119,205.75 C122.314,205.75 125,208.436 125,211.75 z" fill="#294270"/>
    <path d="M113.5,260.25 L161.5,260.25" fill-opacity="0" stroke="#65A1CF" stroke-width="2"/>
    <path d="M143,289.75 C143,293.064 140.314,295.75 137,295.75 C133.686,295.75 131,293.064 131,289.75 C131,286.436 133.686,283.75 137,283.75 C140.314,283.75 143,286.436 143,289.75 z" fill="#294270"/>
    <g>
      <path d="M167.5,310.25 L167.5,210.25 C167.5,204.727 171.977,200.25 177.5,200.25 L217.5,200.25 C223.023,200.25 227.5,204.727 227.5,210.25 L227.5,310.25 C227.5,315.773 223.023,320.25 217.5,320.25 L177.5,320.25 C171.977,320.25 167.5,315.773 167.5,310.25 z" fill="#8FC7ED"/>
      <path d="M167.5,310.25 L167.5,210.25 C167.5,204.727 171.977,200.25 177.5,200.25 L217.5,200.25 C223.023,200.25 227.5,204.727 227.5,210.25 L227.5,310.25 C227.5,315.773 223.023,320.25 217.5,320.25 L177.5,320.25 C171.977,320.25 167.5,315.773 167.5,310.25 z" fill-opacity="0" stroke="#294270" stroke-width="2"/>
    </g>
    <path d="M173.5,260.25 L221.5,260.25" fill-opacity="0" stroke="#65A1CF" stroke-width="2"/>
    <path d="M203,289.75 C203,293.064 200.314,295.75 197,295.75 C193.686,295.75 191,293.064 191,289.75 C191,286.436 193.686,283.75 197,283.75 C200.314,283.75 203,286.436 203,289.75 z" fill="#294270"/>
    <g>
      <path d="M227.5,310.25 L227.5,210.25 C227.5,204.727 231.977,200.25 237.5,200.25 L277.5,200.25 C283.023,200.25 287.5,204.727 287.5,210.25 L287.5,310.25 C287.5,315.773 283.023,320.25 277.5,320.25 L237.5,320.25 C231.977,320.25 227.5,315.773 227.5,310.25 z" fill="#8FC7ED"/>
      <path d="M227.5,310.25 L227.5,210.25 C227.5,204.727 231.977,200.25 237.5,200.25 L277.5,200.25 C283.023,200.25 287.5,204.727 287.5,210.25 L287.5,310.25 C287.5,315.773 283.023,320.25 277.5,320.25 L237.5,320.25 C231.977,320.25 227.5,315.773 227.5,310.25 z" fill-opacity="0" stroke="#294270" stroke-width="2"/>
    </g>
    <path d="M233.5,260.25 L281.5,260.25" fill-opacity="0" stroke="#65A1CF" stroke-width="2"/>
    <path d="M281,307.75 C281,311.064 278.314,313.75 275,313.75 C271.686,313.75 269,311.064 269,307.75 C269,304.436 271.686,301.75 275,301.75 C278.314,301.75 281,304.436 281,307.75 z" fill="#294270"/>
    <path d="M245,271.75 C245,275.064 242.314,277.75 239,277.75 C235.686,277.75 233,275.064 233,271.75 C233,268.436 235.686,265.75 239,265.75 C242.314,265.75 245,268.436 245,271.75 z" fill="#294270"/>
    <g>
      <path d="M287.5,310.25 L287.5,210.25 C287.5,204.727 291.977,200.25 297.5,200.25 L337.5,200.25 C343.023,200.25 347.5,204.727 347.5,210.25 L347.5,310.25 C347.5,315.773 343.023,320.25 337.5,320.25 L297.5,320.25 C291.977,320.25 287.5,315.773 287.5,310.25 z" fill="#8FC7ED"/>
      <path d="M287.5,310.25 L287.5,210.25 C287.5,204.727 291.977,200.25 297.5,200.25 L337.5,200.25 C343.023,200.25 347.5,204.727 347.5,210.25 L347.5,310.25 C347.5,315.773 343.023,320.25 337.5,320.25 L297.5,320.25 C291.977,320.25 287.5,315.773 287.5,310.25 z" fill-opacity="0" stroke="#294270" stroke-width="2"/>
    </g>
    <path d="M323,229.75 C323,233.064 320.314,235.75 317,235.75 C313.686,235.75 311,233.064 311,229.75 C311,226.436 313.686,223.75 317,223.75 C320.314,223.75 323,226.436 323,229.75 z" fill="#294270"/>
    <path d="M293.5,260.25 L341.5,260.25" fill-opacity="0" stroke="#65A1CF" stroke-width="2"/>
    <path d="M323,289.75 C323,293.064 320.314,295.75 317,295.75 C313.686,295.75 311,293.064 311,289.75 C311,286.436 313.686,283.75 317,283.75 C320.314,283.75 323,286.436 323,289.75 z" fill="#294270"/>
    <g>
      <path d="M53.5,110.25 L87.754,110.25" fill-opacity="0" stroke="#8FC7ED" stroke-width="4"/>
      <path d="M87.754,115.05 L100.554,110.25 L87.754,105.45 z" fill="#8FC7ED" fill-opacity="1" stroke="#8FC7ED" stroke-width="4" stroke-opacity="1"/>
    </g>
    <g>
      <path d="M53.5,170.25 L87.754,170.25" fill-opacity="0" stroke="#8FC7ED" stroke-width="4"/>
      <path d="M87.754,175.05 L100.554,170.25 L87.754,165.45 z" fill="#8FC7ED" fill-opacity="1" stroke="#8FC7ED" stroke-width="4" stroke-opacity="1"/>
    </g>
    <g>
      <path d="M53.5,230.25 L87.754,230.25" fill-opacity="0" stroke="#8FC7ED" stroke-width="4"/>
      <path d="M87.754,235.05 L100.554,230.25 L87.754,225.45 z" fill="#8FC7ED" fill-opacity="1" stroke="#8FC7ED" stroke-width="4" stroke-opacity="1"/>
    </g>
    <g>
      <path d="M53.5,290.25 L87.754,290.25" fill-opacity="0" stroke="#8FC7ED" stroke-width="4"/>
      <path d="M87.754,295.05 L100.554,290.25 L87.754,285.45 z" fill="#8FC7ED" fill-opacity="1" stroke="#8FC7ED" stroke-width="4" stroke-opacity="1"/>
    </g>
    <g>
      <path d="M137.5,26.25 L137.5,58.85" fill-opacity="0" stroke="#8FC7ED" stroke-width="4"/>
      <path d="M132.7,58.85 L137.5,71.65 L142.3,58.85 z" fill="#8FC7ED" fill-opacity="1" stroke="#8FC7ED" stroke-width="4" stroke-opacity="1"/>
    </g>
    <g>
      <path d="M197.5,26.25 L197.5,58.85" fill-opacity="0" stroke="#8FC7ED" stroke-width="4"/>
      <path d="M192.7,58.85 L197.5,71.65 L202.3,58.85 z" fill="#8FC7ED" fill-opacity="1" stroke="#8FC7ED" stroke-width="4" stroke-opacity="1"/>
    </g>
    <g>
      <path d="M257.5,26.25 L257.5,58.85" fill-opacity="0" stroke="#8FC7ED" stroke-width="4"/>
      <path d="M252.7,58.85 L257.5,71.65 L262.3,58.85 z" fill="#8FC7ED" fill-opacity="1" stroke="#8FC7ED" stroke-width="4" stroke-opacity="1"/>
    </g>
    <g>
      <path d="M317.5,26.25 L317.5,58.85" fill-opacity="0" stroke="#8FC7ED" stroke-width="4"/>
      <path d="M312.7,58.85 L317.5,71.65 L322.3,58.85 z" fill="#8FC7ED" fill-opacity="1" stroke="#8FC7ED" stroke-width="4" stroke-opacity="1"/>
    </g>
    <g>
      <path d="M53.5,26.25 L92.367,63.848" fill-opacity="0" stroke="#8FC7ED" stroke-width="4"/>
      <path d="M89.03,67.298 L101.567,72.747 L95.704,60.398 z" fill="#8FC7ED" fill-opacity="1" stroke="#8FC7ED" stroke-width="4" stroke-opacity="1"/>
    </g>
    <g>
      <path d="M53.5,374.25 L92.25,337.53" fill-opacity="0" stroke="#8FC7ED" stroke-width="4"/>
      <path d="M95.552,341.015 L101.541,328.726 L88.948,334.046 z" fill="#8FC7ED" fill-opacity="1" stroke="#8FC7ED" stroke-width="4" stroke-opacity="1"/>
    </g>
    <text transform="matrix(1, 0, 0, 1, 78.327, 109.75)">
      <tspan x="-10.327" y="13.5" font-family="Roboto-Bold" font-size="36" fill="#294270">5</tspan>
    </text>
    <text transform="matrix(1, 0, 0, 1, 197, 50.25)">
      <tspan x="-10.327" y="13.5" font-family="Roboto-Bold" font-size="36" fill="#294270">5</tspan>
    </text>
    <text transform="matrix(1, 0, 0, 1, 137, 50.25)">
      <tspan x="-10.327" y="13.5" font-family="Roboto-Bold" font-size="36" fill="#294270">5</tspan>
    </text>
    <text transform="matrix(1, 0, 0, 1, 78.327, 50.25)">
      <tspan x="-10.327" y="13.5" font-family="Roboto-Bold" font-size="36" fill="#294270">5</tspan>
    </text>
    <text transform="matrix(1, 0, 0, 1, 78.327, 349.75)">
      <tspan x="-10.327" y="13.5" font-family="Roboto-Bold" font-size="36" fill="#294270">5</tspan>
    </text>
    <text transform="matrix(1, 0, 0, 1, 78.327, 289.75)">
      <tspan x="-10.327" y="13.5" font-family="Roboto-Bold" font-size="36" fill="#294270">5</tspan>
    </text>
    <text transform="matrix(1, 0, 0, 1, 78.327, 229.75)">
      <tspan x="-10.327" y="13.5" font-family="Roboto-Bold" font-size="36" fill="#294270">5</tspan>
    </text>
    <text transform="matrix(1, 0, 0, 1, 78.327, 169.75)">
      <tspan x="-10.327" y="13.5" font-family="Roboto-Bold" font-size="36" fill="#294270">5</tspan>
    </text>
    <text transform="matrix(1, 0, 0, 1, 257, 50.25)">
      <tspan x="-10.327" y="13.5" font-family="Roboto-Bold" font-size="36" fill="#294270">5</tspan>
    </text>
    <text transform="matrix(1, 0, 0, 1, 317, 50.25)">
      <tspan x="-10.327" y="13.5" font-family="Roboto-Bold" font-size="36" fill="#294270">5</tspan>
    </text>
  </g>
  <defs/>
</svg>
